<?xml version="1.0" encoding="UTF-8" standalone="no"?>
<!DOCTYPE svg PUBLIC "-//W3C//DTD SVG 1.1//EN" "http://www.w3.org/Graphics/SVG/1.1/DTD/svg11.dtd">
<svg width="100%" height="100%" viewBox="0 0 1103 377" version="1.1" xmlns="http://www.w3.org/2000/svg" xmlns:xlink="http://www.w3.org/1999/xlink" xml:space="preserve" style="fill-rule:evenodd;clip-rule:evenodd;">
    <g id="Layer-1" transform="matrix(1,0,0,1,344.813,-66.4793)">
        <g id="path4330.-1.-1" transform="matrix(1.11609,0,0,1,-22.3375,4.26326e-14)">
            <path d="M90,381.745L327.163,381.745" style="fill:none;stroke:black;stroke-width:2px;"/>
        </g>
        <g id="path4330.-1.-1.-5" transform="matrix(1.14861,0,0,1.10358,-31.6561,-33.1503)">
            <path d="M326.012,331.848L95.565,177.952" style="fill:none;stroke:black;stroke-width:2px;"/>
        </g>
        <g id="path4330.-1.-1.-54" transform="matrix(1.11609,0,0,1,-28.4279,-6.07733)">
            <path d="M332.62,120.934L95.457,120.934" style="fill:none;stroke:black;stroke-width:2px;"/>
        </g>
        <g id="rect3336.-7.-6.-5.-6" transform="matrix(5.24518,0,0,3.30281,-1172.32,-155.008)">
            <rect x="161.624" y="67.969" width="76.772" height="29.294" style="fill:rgb(255,149,0);stroke:black;stroke-width:0.46px;"/>
        </g>
        <g id="text4202" transform="matrix(1,0,0,1,-0.245714,-9.96555)">
            <g transform="matrix(1,0,0,1,-122.304,121.274)">
                <text x="-109.42px" y="0px" style="font-family:'HelveticaNeue-Light', 'Helvetica Neue';font-weight:300;font-size:40px;">Open QASM</text>
            </g>
            <g transform="matrix(1,0,0,1,-122.304,155.274)">
                <text x="-32.929px" y="0px" style="font-family:'HelveticaNeue-Thin', 'Helvetica Neue', sans-serif;font-weight:200;font-size:34px;">(t<tspan x="-16.405px 0.833px 15.929px " y="0px 0px 0px ">ext</tspan>)</text>
            </g>
        </g>
        <g id="rect3336.-7.-6.-5" transform="matrix(5.24518,0,0,3.30281,-1172.32,108.582)">
            <rect x="161.624" y="67.969" width="76.772" height="29.294" style="fill:rgb(255,149,0);stroke:black;stroke-width:0.46px;"/>
        </g>
        <g id="text4210" transform="matrix(1,0,0,1,2.16123,-9.78609)">
            <g transform="matrix(1,0,0,1,-126.316,384.884)">
                <text x="-47.06px" y="0px" style="font-family:'HelveticaNeue-Light', 'Helvetica Neue';font-weight:300;font-size:40px;">Node</text>
            </g>
            <g transform="matrix(1,0,0,1,-126.316,419.884)">
                <text x="-37.434px" y="0px" style="font-family:'HelveticaNeue-Thin', 'Helvetica Neue', sans-serif;font-weight:200;font-size:34px;">(AS<tspan x="11.594px 29.24px " y="0px 0px ">T)</tspan></text>
            </g>
        </g>
        <g id="rect3336.-7.-6" transform="matrix(5.24518,0,0,3.30281,-504.943,-155.008)">
            <rect x="161.624" y="67.969" width="76.772" height="29.294" style="fill:rgb(255,149,0);stroke:black;stroke-width:0.46px;"/>
        </g>
        <g id="text4214" transform="matrix(1,0,0,1,-4.60523,-10.8786)">
            <g transform="matrix(1,0,0,1,548.691,119.187)">
                <text x="-134.46px" y="0px" style="font-family:'HelveticaNeue-Light', 'Helvetica Neue';font-weight:300;font-size:40px;">QuantumCir<tspan x="72.98px 93.74px " y="0px 0px ">cu</tspan>it</text>
            </g>
            <g transform="matrix(1,0,0,1,548.691,156.187)">
                <text x="-129.217px" y="0px" style="font-family:'HelveticaNeue-Thin', 'Helvetica Neue', sans-serif;font-weight:200;font-size:34px;">(list of Instructions)</text>
            </g>
        </g>
        <g id="rect3336.-7.-6.-0" transform="matrix(5.24518,0,0,3.30281,-504.943,108.582)">
            <rect x="161.624" y="67.969" width="76.772" height="29.294" style="fill:rgb(255,149,0);stroke:black;stroke-width:0.46px;"/>
        </g>
        <g id="text4218" transform="matrix(1,0,0,1,11.9155,-10.6223)">
            <g transform="matrix(1,0,0,1,532.09,386.32)">
                <text x="-54.46px" y="0px" style="font-family:'HelveticaNeue-Light', 'Helvetica Neue';font-weight:300;font-size:40px;">Cir<tspan x="-7.02px 13.74px " y="0px 0px ">cu</tspan>it</text>
            </g>
            <g transform="matrix(1,0,0,1,532.09,421.32)">
                <text x="-41.497px" y="0px" style="font-family:'HelveticaNeue-Thin', 'Helvetica Neue', sans-serif;font-weight:200;font-size:34px;">(D<tspan x="-11.441px 8.109px 33.303px " y="0px 0px 0px ">AG)</tspan></text>
            </g>
        </g>
        <g id="path4330" transform="matrix(1,0,0,1.04285,0.18739,-19.1961)">
            <path d="M-240,337.791L-240,174.934" style="fill:none;stroke:black;stroke-width:2px;"/>
        </g>
        <g id="path4330.-1" transform="matrix(1,0,0,1.04285,-0.241181,-12.2329)">
            <path d="M-10.571,168.256L-10.571,331.114" style="fill:none;stroke:black;stroke-width:2px;"/>
        </g>
        <g transform="matrix(-1,1.22465e-16,-1.22465e-16,-1,364.139,484.117)">
            <path d="M374.952,136.097L389.903,166L360,166L374.952,136.097Z" style="fill:rgb(235,235,235);stroke:black;stroke-width:2px;stroke-linecap:round;stroke-linejoin:round;stroke-miterlimit:1.5;"/>
        </g>
        <g transform="matrix(-1.83697e-16,-1,1,-1.83697e-16,-72.9374,489.808)">
            <path d="M374.952,136.097L389.903,166L360,166L374.952,136.097Z" style="fill:rgb(235,235,235);stroke:black;stroke-width:2px;stroke-linecap:round;stroke-linejoin:round;stroke-miterlimit:1.5;"/>
        </g>
        <g transform="matrix(0.559198,-0.829034,0.829034,0.559198,-256.785,389.615)">
            <path d="M374.952,136.097L389.903,166L360,166L374.952,136.097Z" style="fill:rgb(235,235,235);stroke:black;stroke-width:2px;stroke-linecap:round;stroke-linejoin:round;stroke-miterlimit:1.5;"/>
        </g>
        <g transform="matrix(-1.66533e-16,-1,1,-1.66533e-16,-78.7086,756.697)">
            <path d="M374.952,136.097L389.903,166L360,166L374.952,136.097Z" style="fill:rgb(235,235,235);stroke:black;stroke-width:2px;stroke-linecap:round;stroke-linejoin:round;stroke-miterlimit:1.5;"/>
        </g>
        <g transform="matrix(1,-2.44929e-16,2.44929e-16,1,-614.764,12.4794)">
            <path d="M374.952,136.097L389.903,166L360,166L374.952,136.097Z" style="fill:rgb(235,235,235);stroke:black;stroke-width:2px;stroke-linecap:round;stroke-linejoin:round;stroke-miterlimit:1.5;"/>
        </g>
        <g transform="matrix(1,0,0,1,-183.235,197.754)">
            <g id="text7818">
                <text x="0px" y="0px" style="font-family:'LucidaGrande', 'Lucida Grande', sans-serif;font-weight:500;font-size:25px;">Qasm.parse()</text>
            </g>
        </g>
        <g transform="matrix(1,0,0,1,-228.333,319.247)">
            <g id="text7822">
                <text x="0px" y="0px" style="font-family:'LucidaGrande', 'Lucida Grande', sans-serif;font-weight:500;font-size:25px;">.qasm()</text>
            </g>
        </g>
        <g transform="matrix(1,0,0,1,156.94,415.972)">
            <g id="text7826">
                <text x="0px" y="0px" style="font-family:'LucidaGrande', 'Lucida Grande', sans-serif;font-weight:500;font-size:25px;">Unroller</text>
            </g>
        </g>
        <g transform="matrix(1,0,0,1,297.438,299.754)">
            <g id="text7822.-2">
                <text x="0px" y="0px" style="font-family:'LucidaGrande', 'Lucida Grande', sans-serif;font-weight:500;font-size:25px;">.qasm()</text>
            </g>
        </g>
        <g transform="matrix(1,0,0,1,241.784,104.131)">
            <g id="text7822.-2.-4">
                <text x="0px" y="0px" style="font-family:'LucidaGrande', 'Lucida Grande', sans-serif;font-weight:500;font-size:25px;">.qasm()</text>
            </g>
        </g>
    </g>
</svg>
