<?xml version="1.0" encoding="UTF-8" standalone="no"?>
<!DOCTYPE svg PUBLIC "-//W3C//DTD SVG 1.1//EN" "http://www.w3.org/Graphics/SVG/1.1/DTD/svg11.dtd">
<svg width="100%" height="100%" viewBox="0 0 1322 668" version="1.1" xmlns="http://www.w3.org/2000/svg" xmlns:xlink="http://www.w3.org/1999/xlink" xml:space="preserve" style="fill-rule:evenodd;clip-rule:evenodd;">
    <g id="Layer-1" transform="matrix(1,0,0,1,782.224,66.6292)">
        <g id="rect3336.-7.-6.-5.-6" transform="matrix(5.24518,0,0,3.30281,-1170.8,-149.93)">
            <rect x="161.624" y="67.969" width="76.772" height="29.294" style="fill:rgb(41,142,226);stroke:black;stroke-width:0.46px;"/>
        </g>
        <g id="text4202" transform="matrix(1,0,0,1,-1.95356,0)">
            <g transform="matrix(1,0,0,1,-120.588,135.674)">
                <text x="-65.58px" y="0px" style="font-family:'HelveticaNeue-Light', 'Helvetica Neue';font-weight:300;font-size:40px;">Unr<tspan x="-4.82px 17.42px " y="0px 0px ">ol</tspan>ler</text>
            </g>
            <g transform="matrix(1,0,0,1,-782.224,-66.6292)">
                <text x="723.649px" y="237.94px" style="font-family:'HelveticaNeue-Light', 'Helvetica Neue';font-weight:300;font-size:8px;">z</text>
            </g>
        </g>
        <g id="rect3336.-7.-6.-5" transform="matrix(5.24518,0,0,3.30281,-1170.8,113.784)">
            <rect x="161.624" y="67.969" width="76.772" height="29.294" style="fill:rgb(105,216,255);stroke:black;stroke-width:0.46px;"/>
        </g>
        <g transform="matrix(1,0,0,1,-126.316,396.884)">
            <g id="text4210">
                <text x="-132.64px" y="0px" style="font-family:'HelveticaNeue-Light', 'Helvetica Neue';font-weight:300;font-size:40px;">PrinterBackend</text>
            </g>
        </g>
        <path id="path4330.-1" d="M-120.571,168.256L-120.571,331.114" style="fill:none;stroke:black;stroke-width:2px;"/>
        <g transform="matrix(1,0,0,1,94.2857,129.505)">
            <g id="text7818">
                <text x="0px" y="0px" style="font-family:'LucidaGrande', 'Lucida Grande', sans-serif;font-weight:500;font-size:25px;">.execute()</text>
            </g>
        </g>
        <g transform="matrix(1,0,0,1,-244.503,531.879)">
            <g id="text7822">
                <text x="0px" y="0px" style="font-family:'LucidaGrande', 'Lucida Grande', sans-serif;font-weight:500;font-size:25px;">OpenQASM to stdout</text>
            </g>
        </g>
        <g transform="matrix(1,0,0,1,184.938,235.811)">
            <g id="text7935">
                <g>
                    <text x="0px" y="0px" style="font-family:'LucidaGrande', 'Lucida Grande', sans-serif;font-weight:500;font-size:25px;">UnrollerBackend</text>
                    <text x="21.436px" y="31.25px" style="font-family:'LucidaGrande', 'Lucida Grande', sans-serif;font-weight:500;font-size:25px;">method calls</text>
                </g>
            </g>
        </g>
        <g id="path4330.-1.-2" transform="matrix(1,0,0,0.578181,0,182.783)">
            <path d="M-120.928,434.554L-120.928,530.263" style="fill:none;stroke:black;stroke-width:2.45px;"/>
        </g>
        <g id="rect3336.-7.-6.-5.-2" transform="matrix(5.24518,0,0,3.30281,-722.473,112.551)">
            <rect x="161.624" y="67.969" width="76.772" height="29.294" style="fill:rgb(105,216,255);stroke:black;stroke-width:0.46px;"/>
        </g>
        <g transform="matrix(1,0,0,1,322.014,395.651)">
            <g id="text4210.-1">
                <text x="-131.16px" y="0px" style="font-family:'HelveticaNeue-Light', 'Helvetica Neue';font-weight:300;font-size:40px;">Cir<tspan x="-83.72px -62.96px " y="0px 0px ">cu</tspan>itBackend</text>
            </g>
        </g>
        <g id="text7822.-0" transform="matrix(1,0,0,1,3.49718,-37.3406)">
            <g transform="matrix(1,0,0,1,325.539,567.986)">
                <text x="-120.276px" y="0px" style="font-family:'LucidaGrande', 'Lucida Grande', sans-serif;font-weight:500;font-size:25px;">Circuit (DAG) object</text>
            </g>
            <g transform="matrix(1,0,0,1,325.539,599.236)">
                <text x="-144.171px" y="0px" style="font-family:'LucidaGrande', 'Lucida Grande', sans-serif;font-weight:500;font-size:25px;">unroller.backend.circuit</text>
            </g>
        </g>
        <g id="path4330.-1.-2.-4" transform="matrix(1,0,0,0.578181,0,182.783)">
            <path d="M327.403,433.321L327.403,529.03" style="fill:none;stroke:black;stroke-width:2.45px;"/>
        </g>
        <g id="rect3336.-7.-6.-5.-1" transform="matrix(5.24518,0,0,3.30281,-1618.19,112.551)">
            <rect x="161.624" y="67.969" width="76.772" height="29.294" style="fill:rgb(105,216,255);stroke:black;stroke-width:0.46px;"/>
        </g>
        <g transform="matrix(1,0,0,1,-569.7,395.651)">
            <g id="text4210.-6">
                <text x="-157.82px" y="0px" style="font-family:'HelveticaNeue-Light', 'Helvetica Neue';font-weight:300;font-size:40px;">SimulatorBackend</text>
            </g>
        </g>
        <g id="text7822.-2" transform="matrix(1,0,0,1,3.49718,-37.3406)">
            <g transform="matrix(1,0,0,1,-576.297,567.986)">
                <text x="-123.688px" y="0px" style="font-family:'LucidaGrande', 'Lucida Grande', sans-serif;font-weight:500;font-size:25px;">Simulator input data</text>
            </g>
            <g transform="matrix(1,0,0,1,-576.297,599.236)">
                <text x="-144.171px" y="0px" style="font-family:'LucidaGrande', 'Lucida Grande', sans-serif;font-weight:500;font-size:25px;">unroller.backend.circuit</text>
            </g>
        </g>
        <g id="path4330.-1.-2.-1" transform="matrix(1,0,0,0.578181,0,182.783)">
            <path d="M-568.312,433.321L-568.312,529.03" style="fill:none;stroke:black;stroke-width:2.45px;"/>
        </g>
        <g id="path4330.-1.-2.-0" transform="matrix(0.608395,0,0,0.608395,-47.1989,26.864)">
            <path d="M-120.527,-27.109L-120.527,68.6" style="fill:none;stroke:black;stroke-width:3.29px;"/>
        </g>
        <g transform="matrix(1,0,0,1,-187.89,3.75748)">
            <g id="text7935.-7">
                <text x="0px" y="0px" style="font-family:'LucidaGrande', 'Lucida Grande', sans-serif;font-weight:500;font-size:25px;">Node (AST)</text>
            </g>
        </g>
        <path id="path4330.-1.-1.-5" d="M14.871,174.637L245.318,328.533" style="fill:none;stroke:black;stroke-width:2px;"/>
        <path id="path4330.-1.-1.-5.-5" d="M-253.067,174.637L-483.515,328.533" style="fill:none;stroke:black;stroke-width:2px;"/>
    </g>
</svg>
