<?xml version="1.0" encoding="UTF-8" standalone="no"?>
<svg
   viewBox="0 0 1137 566.55072"
   fill="none"
   version="1.1"
   id="svg138"
   sodipodi:docname="qiskit_main.svg"
   inkscape:version="1.1.2 (b8e25be8, 2022-02-05)"
   xmlns:inkscape="http://www.inkscape.org/namespaces/inkscape"
   xmlns:sodipodi="http://sodipodi.sourceforge.net/DTD/sodipodi-0.dtd"
   xmlns="http://www.w3.org/2000/svg"
   xmlns:svg="http://www.w3.org/2000/svg">
  <sodipodi:namedview
     id="namedview140"
     pagecolor="#ffffff"
     bordercolor="#666666"
     borderopacity="1.0"
     inkscape:pageshadow="2"
     inkscape:pageopacity="0.0"
     inkscape:pagecheckerboard="true"
     showgrid="false"
     fit-margin-top="0"
     fit-margin-left="0"
     fit-margin-right="0"
     fit-margin-bottom="0"
     inkscape:zoom="0.72823219"
     inkscape:cx="568.5"
     inkscape:cy="363.20833"
     inkscape:window-width="1920"
     inkscape:window-height="1027"
     inkscape:window-x="0"
     inkscape:window-y="25"
     inkscape:window-maximized="1"
     inkscape:current-layer="svg138" />
  <rect
     x="0.4339233"
     y="0.43392199"
     width="560.06512"
     height="242.48723"
     fill="#f2f4f8"
     stroke="#491d8b"
     stroke-linecap="round"
     stroke-dasharray="1.98326, 3.96652"
     id="rect9"
     style="stroke-width:0.867844" />
  <rect
     x="0.44757801"
     y="256.44757"
     width="1136.1049"
     height="149.02876"
     fill="#f2f4f8"
     stroke="#491d8b"
     stroke-linecap="round"
     stroke-dasharray="2, 4"
     id="rect11"
     style="stroke-width:0.895156" />
  <rect
     x="576.50092"
     y="0.43392199"
     width="560.06512"
     height="242.48723"
     fill="#f2f4f8"
     stroke="#491d8b"
     stroke-linecap="round"
     stroke-dasharray="1.98326, 3.96652"
     id="rect13"
     style="stroke-width:0.867844" />
  <rect
     x="576.50079"
     y="418.4455"
     width="560.05371"
     height="147.65968"
     fill="#f2f4f8"
     stroke="#491d8b"
     stroke-linecap="round"
     stroke-dasharray="2, 4"
     id="rect15"
     style="stroke-width:0.891036" />
  <rect
     x="0.44551808"
     y="418.4455"
     width="560.05371"
     height="147.65968"
     fill="#f2f4f8"
     stroke="#491d8b"
     stroke-linecap="round"
     stroke-dasharray="2, 4"
     id="rect17"
     style="stroke-width:0.891036" />
  <path
     d="m 599.57,448.5 h 1.848 v -9.772 h -1.848 v 4.004 h -4.074 v -4.004 h -1.848 v 9.772 h 1.848 v -4.13 h 4.074 z m 5.994,0.168 c 1.093,0 1.891,-0.49 2.129,-1.428 h 0.084 c 0.112,0.756 0.588,1.26 1.358,1.26 h 0.994 v -1.428 h -0.728 v -3.444 c 0,-1.666 -1.051,-2.604 -3.025,-2.604 -1.47,0 -2.324,0.56 -2.856,1.4 l 1.064,0.952 c 0.35,-0.504 0.826,-0.924 1.666,-0.924 0.953,0 1.358,0.476 1.358,1.288 v 0.532 h -1.245 c -1.989,0 -3.123,0.742 -3.123,2.24 0,1.302 0.84,2.156 2.324,2.156 z m 0.602,-1.302 c -0.7,0 -1.106,-0.294 -1.106,-0.882 v -0.238 c 0,-0.574 0.462,-0.896 1.401,-0.896 h 1.147 v 0.966 c 0,0.686 -0.644,1.05 -1.442,1.05 z m 7.365,1.134 v -4.48 c 0,-0.798 0.63,-1.134 1.834,-1.134 h 0.56 v -1.694 h -0.392 c -1.162,0 -1.75,0.742 -1.932,1.512 h -0.07 v -1.512 h -1.792 v 7.308 z m 8.332,0 h 1.792 v -10.36 h -1.792 v 4.256 h -0.07 c -0.252,-0.84 -1.05,-1.372 -2.016,-1.372 -1.834,0 -2.856,1.372 -2.856,3.808 0,2.45 1.022,3.836 2.856,3.836 0.966,0 1.75,-0.56 2.016,-1.386 h 0.07 z m -1.512,-1.316 c -0.924,0 -1.554,-0.672 -1.554,-1.708 v -1.26 c 0,-1.036 0.63,-1.722 1.554,-1.722 0.854,0 1.512,0.462 1.512,1.176 v 2.324 c 0,0.756 -0.658,1.19 -1.512,1.19 z m 6.832,1.316 h 1.904 l 0.924,-3.22 0.532,-1.988 h 0.042 l 0.546,1.988 0.938,3.22 h 1.932 l 2.002,-7.308 h -1.666 l -0.728,3.01 -0.574,2.506 h -0.056 l -0.686,-2.506 -0.882,-3.01 h -1.624 l -0.854,3.01 -0.672,2.506 h -0.056 l -0.574,-2.506 -0.742,-3.01 h -1.722 z m 11.957,0.168 c 1.092,0 1.89,-0.49 2.128,-1.428 h 0.084 c 0.112,0.756 0.588,1.26 1.358,1.26 h 0.994 v -1.428 h -0.728 v -3.444 c 0,-1.666 -1.05,-2.604 -3.024,-2.604 -1.47,0 -2.324,0.56 -2.856,1.4 l 1.064,0.952 c 0.35,-0.504 0.826,-0.924 1.666,-0.924 0.952,0 1.358,0.476 1.358,1.288 v 0.532 h -1.246 c -1.988,0 -3.122,0.742 -3.122,2.24 0,1.302 0.84,2.156 2.324,2.156 z m 0.602,-1.302 c -0.7,0 -1.106,-0.294 -1.106,-0.882 v -0.238 c 0,-0.574 0.462,-0.896 1.4,-0.896 h 1.148 v 0.966 c 0,0.686 -0.644,1.05 -1.442,1.05 z m 7.364,1.134 v -4.48 c 0,-0.798 0.63,-1.134 1.834,-1.134 h 0.56 v -1.694 h -0.392 c -1.162,0 -1.75,0.742 -1.932,1.512 h -0.07 v -1.512 h -1.792 v 7.308 z m 6.75,0.168 c 1.358,0 2.422,-0.518 3.024,-1.344 l -0.966,-1.078 c -0.448,0.574 -0.98,0.994 -1.862,0.994 -1.176,0 -1.778,-0.714 -1.778,-1.764 v -0.182 h 4.858 v -0.588 c 0,-2.002 -1.05,-3.682 -3.332,-3.682 -2.142,0 -3.388,1.498 -3.388,3.808 0,2.338 1.288,3.836 3.444,3.836 z m -0.028,-6.3 c 0.924,0 1.442,0.686 1.442,1.694 v 0.126 h -2.996 v -0.112 c 0,-1.008 0.616,-1.708 1.554,-1.708 z m 8.509,8.932 h 1.792 v -4.018 h 0.056 c 0.28,0.826 1.05,1.386 2.016,1.386 1.848,0 2.87,-1.386 2.87,-3.836 0,-2.436 -1.022,-3.808 -2.87,-3.808 -0.966,0 -1.75,0.532 -2.016,1.372 h -0.056 v -1.204 h -1.792 z m 3.29,-4.116 c -0.854,0 -1.498,-0.434 -1.498,-1.19 v -2.324 c 0,-0.714 0.644,-1.176 1.498,-1.176 0.924,0 1.568,0.686 1.568,1.722 v 1.26 c 0,1.036 -0.644,1.708 -1.568,1.708 z m 7.057,1.316 v -4.48 c 0,-0.798 0.63,-1.134 1.834,-1.134 h 0.56 v -1.694 h -0.392 c -1.162,0 -1.75,0.742 -1.932,1.512 h -0.07 v -1.512 h -1.792 v 7.308 z m 6.694,0.168 c 2.1,0 3.402,-1.484 3.402,-3.836 0,-2.338 -1.302,-3.808 -3.402,-3.808 -2.086,0 -3.388,1.47 -3.388,3.808 0,2.352 1.302,3.836 3.388,3.836 z m 0,-1.442 c -0.924,0 -1.512,-0.602 -1.512,-1.708 v -1.358 c 0,-1.092 0.588,-1.694 1.512,-1.694 0.938,0 1.526,0.602 1.526,1.694 v 1.358 c 0,1.106 -0.588,1.708 -1.526,1.708 z m 8.737,1.274 2.45,-7.308 h -1.708 l -0.994,3.15 -0.714,2.604 h -0.098 l -0.714,-2.604 -1.022,-3.15 h -1.764 l 2.436,7.308 z m 4.702,-8.372 c 0.728,0 1.05,-0.378 1.05,-0.896 v -0.28 c 0,-0.518 -0.322,-0.896 -1.05,-0.896 -0.742,0 -1.05,0.378 -1.05,0.896 v 0.28 c 0,0.518 0.308,0.896 1.05,0.896 z m -0.896,8.372 h 1.792 v -7.308 h -1.792 z m 8.565,0 h 1.792 v -10.36 h -1.792 v 4.256 h -0.07 c -0.252,-0.84 -1.05,-1.372 -2.016,-1.372 -1.834,0 -2.856,1.372 -2.856,3.808 0,2.45 1.022,3.836 2.856,3.836 0.966,0 1.75,-0.56 2.016,-1.386 h 0.07 z m -1.512,-1.316 c -0.924,0 -1.554,-0.672 -1.554,-1.708 v -1.26 c 0,-1.036 0.63,-1.722 1.554,-1.722 0.854,0 1.512,0.462 1.512,1.176 v 2.324 c 0,0.756 -0.658,1.19 -1.512,1.19 z m 8.484,1.484 c 1.358,0 2.422,-0.518 3.024,-1.344 l -0.966,-1.078 c -0.448,0.574 -0.98,0.994 -1.862,0.994 -1.176,0 -1.778,-0.714 -1.778,-1.764 v -0.182 h 4.858 v -0.588 c 0,-2.002 -1.05,-3.682 -3.332,-3.682 -2.142,0 -3.388,1.498 -3.388,3.808 0,2.338 1.288,3.836 3.444,3.836 z m -0.028,-6.3 c 0.924,0 1.442,0.686 1.442,1.694 v 0.126 h -2.996 v -0.112 c 0,-1.008 0.616,-1.708 1.554,-1.708 z m 6.833,6.132 v -4.48 c 0,-0.798 0.63,-1.134 1.834,-1.134 h 0.56 v -1.694 h -0.392 c -1.162,0 -1.75,0.742 -1.932,1.512 h -0.07 v -1.512 h -1.792 v 7.308 z m 6.258,0.168 c 1.82,0 3.01,-0.98 3.01,-2.394 0,-1.218 -0.77,-1.932 -2.366,-2.156 l -0.742,-0.098 c -0.686,-0.112 -0.952,-0.336 -0.952,-0.826 0,-0.448 0.336,-0.756 1.106,-0.756 0.714,0 1.33,0.336 1.75,0.784 l 1.05,-1.05 c -0.7,-0.728 -1.428,-1.148 -2.856,-1.148 -1.666,0 -2.772,0.896 -2.772,2.31 0,1.33 0.868,2.016 2.436,2.212 l 0.728,0.098 c 0.644,0.084 0.896,0.35 0.896,0.77 0,0.518 -0.364,0.84 -1.218,0.84 -0.826,0 -1.47,-0.378 -2.002,-0.994 l -1.092,1.064 c 0.728,0.84 1.638,1.344 3.024,1.344 z"
     fill="#000000"
     id="path19" />
  <path
     d="m 20.686001,448.668 c 2.338,0 3.668,-1.26 3.668,-3.108 0,-1.61 -0.924,-2.492 -2.898,-2.842 l -0.91,-0.168 c -0.938,-0.168 -1.358,-0.476 -1.358,-1.218 0,-0.728 0.546,-1.148 1.596,-1.148 1.036,0 1.708,0.406 2.184,1.008 l 1.26,-1.19 c -0.784,-0.938 -1.876,-1.442 -3.346,-1.442 -2.184,0 -3.542,1.134 -3.542,2.884 0,1.596 0.952,2.534 2.926,2.842 l 0.924,0.14 c 1.022,0.182 1.33,0.588 1.33,1.246 0,0.826 -0.588,1.372 -1.722,1.372 -1.008,0 -1.834,-0.42 -2.506,-1.204 l -1.246,1.204 c 0.826,0.966 1.974,1.624 3.64,1.624 z m 6.4646,-8.54 c 0.728,0 1.05,-0.378 1.05,-0.896 v -0.28 c 0,-0.518 -0.322,-0.896 -1.05,-0.896 -0.742,0 -1.05,0.378 -1.05,0.896 v 0.28 c 0,0.518 0.308,0.896 1.05,0.896 z m -0.896,8.372 h 1.792 v -7.308 h -1.792 z m 5.8211,0 v -4.83 c 0,-0.784 0.672,-1.176 1.358,-1.176 0.798,0 1.176,0.518 1.176,1.568 v 4.438 h 1.792 v -4.83 c 0,-0.784 0.658,-1.176 1.358,-1.176 0.798,0 1.176,0.518 1.176,1.568 v 4.438 h 1.792 v -4.62 c 0,-1.82 -0.812,-2.856 -2.24,-2.856 -1.162,0 -1.974,0.658 -2.24,1.47 h -0.028 c -0.35,-0.98 -1.12,-1.47 -2.114,-1.47 -1.092,0 -1.68,0.616 -1.96,1.386 h -0.07 v -1.218 h -1.792 v 7.308 z m 15.1638,0 h 1.792 v -7.308 h -1.792 v 4.83 c 0,0.784 -0.714,1.162 -1.428,1.162 -0.854,0 -1.232,-0.546 -1.232,-1.554 v -4.438 h -1.792 v 4.62 c 0,1.82 0.84,2.856 2.338,2.856 1.204,0 1.792,-0.658 2.044,-1.386 h 0.07 z m 6.7804,0 v -1.428 h -0.966 v -8.932 h -1.792 v 8.596 c 0,1.12 0.574,1.764 1.792,1.764 z m 3.3233,0.168 c 1.092,0 1.89,-0.49 2.128,-1.428 h 0.084 c 0.112,0.756 0.588,1.26 1.358,1.26 h 0.994 v -1.428 h -0.728 v -3.444 c 0,-1.666 -1.05,-2.604 -3.024,-2.604 -1.47,0 -2.324,0.56 -2.856,1.4 l 1.064,0.952 c 0.35,-0.504 0.826,-0.924 1.666,-0.924 0.952,0 1.358,0.476 1.358,1.288 v 0.532 h -1.246 c -1.988,0 -3.122,0.742 -3.122,2.24 0,1.302 0.84,2.156 2.324,2.156 z m 0.602,-1.302 c -0.7,0 -1.106,-0.294 -1.106,-0.882 v -0.238 c 0,-0.574 0.462,-0.896 1.4,-0.896 h 1.148 v 0.966 c 0,0.686 -0.644,1.05 -1.442,1.05 z m 7.7996,1.134 h 1.288 v -1.428 h -1.386 v -4.452 h 1.498 v -1.428 h -1.498 v -2.002 h -1.61 v 1.246 c 0,0.504 -0.168,0.756 -0.7,0.756 h -0.56 v 1.428 h 1.078 v 4.018 c 0,1.19 0.658,1.862 1.89,1.862 z m 5.9576,0.168 c 2.1,0 3.402,-1.484 3.402,-3.836 0,-2.338 -1.302,-3.808 -3.402,-3.808 -2.086,0 -3.388,1.47 -3.388,3.808 0,2.352 1.302,3.836 3.388,3.836 z m 0,-1.442 c -0.924,0 -1.512,-0.602 -1.512,-1.708 v -1.358 c 0,-1.092 0.588,-1.694 1.512,-1.694 0.938,0 1.526,0.602 1.526,1.694 v 1.358 c 0,1.106 -0.588,1.708 -1.526,1.708 z m 6.9427,1.274 v -4.48 c 0,-0.798 0.63,-1.134 1.834,-1.134 h 0.56 v -1.694 h -0.392 c -1.162,0 -1.75,0.742 -1.932,1.512 h -0.07 v -1.512 h -1.792 v 7.308 z"
     fill="#000000"
     id="path21" />
  <path
     d="m 1034.79,71.169799 h -4.3 c -3.39,0 -4.96,-1.846 -4.96,-4.7995 v -2.2889 c -6.78,-0.8602 -11.08,-6.2134 -11.08,-15.4468 0,-10.1379 5.17,-15.576 13.08,-15.576 7.91,0 13.08,5.4381 13.08,15.576 0,8.9749 -4.04,14.2838 -10.47,15.3619 v 3.1048 h 4.55 z m 0.56,-20.1503 v -4.7366 c 0,-5.4788 -3.12,-8.8605 -7.81,-8.8605 -4.68,0 -7.81,3.367 -7.81,8.8605 v 4.7366 c 0,5.4788 3.13,8.8605 7.81,8.8605 4.69,0 7.81,-3.3817 7.81,-8.8605 z"
     fill="#010101"
     id="path23" />
  <path
     d="m 1044.11,35.671799 v -0.7384 c 0,-1.4251 0.87,-2.4588 2.82,-2.4588 1.96,0 2.78,1.0337 2.78,2.4588 v 0.7384 c 0,1.4213 -0.82,2.4588 -2.78,2.4588 -1.95,0 -2.82,-1.0375 -2.82,-2.4588 z"
     fill="#010101"
     id="path25" />
  <path
     d="m 1049.28,41.267599 h -4.74 v 22.4355 h 4.74 z"
     fill="#010101"
     id="path27" />
  <path
     d="m 1053.23,59.993799 3.03,-2.7615 c 1.65,1.9862 3.7,3.1934 6.39,3.1934 2.7,0 4.13,-1.1075 4.13,-3.0199 0,-1.4251 -0.87,-2.5031 -3.22,-2.8059 l -2.08,-0.2584 c -4.61,-0.5611 -7.44,-2.5474 -7.44,-6.6897 0,-4.3564 3.43,-6.9038 8.39,-6.9038 4.09,0 6.39,1.3402 8.43,3.5812 l -2.91,2.7615 c -0.68,-0.7987 -1.52,-1.4404 -2.48,-1.8799 -0.95,-0.4394 -1.99,-0.666 -3.04,-0.6638 -2.61,0 -3.83,1.1075 -3.83,2.8021 0,1.6946 1.09,2.5031 3.48,2.8944 l 2.09,0.2585 c 4.95,0.7383 7.17,2.8907 7.17,6.5124 0,4.3158 -3.52,7.2066 -8.95,7.2066 -4.25,0 -7.03,-1.5949 -9.16,-4.2272 z"
     fill="#010101"
     id="path29" />
  <path
     d="m 1074.57,31.773399 h 4.75 v 19.5891 h 0.22 l 3.13,-4.0131 5.43,-6.0805 h 5.52 l -7.92,8.6722 8.87,13.7633 h -5.66 l -6.48,-10.7064 -3.11,3.3707 v 7.3357 h -4.75 z"
     fill="#010101"
     id="path31" />
  <path
     d="m 1097.86,35.671799 v -0.7384 c 0,-1.4251 0.87,-2.4588 2.82,-2.4588 1.96,0 2.78,1.0337 2.78,2.4588 v 0.7384 c 0,1.4213 -0.82,2.4588 -2.78,2.4588 -1.95,0 -2.82,-1.0375 -2.82,-2.4588 z"
     fill="#010101"
     id="path33" />
  <path
     d="m 1103.03,41.267599 h -4.74 v 22.4355 h 4.74 z"
     fill="#010101"
     id="path35" />
  <path
     d="m 1115.5,63.704599 c -3.26,0 -5,-1.8127 -5,-4.8769 v -13.719 h -3.52 v -3.8396 h 1.92 c 1.56,0 2.08,-0.6497 2.08,-2.2151 v -3.9134 h 4.26 v 6.1285 h 4.74 v 3.8396 h -4.74 v 14.7675 h 4.39 v 3.8395 z"
     fill="#010101"
     id="path37" />
  <path
     d="m 1001.27,62.578299 c -0.05,-4.7809 -11.35,-7.4797 -21.992,-7.5978 -11.288,0 -22.966,2.8353 -23.003,7.5831 v 0.0295 c 0.045,4.7699 11.354,7.465 21.995,7.5831 11.29,0 22.97,-2.8354 23,-7.5831 z m -23.004,5.8553 c -11.901,-0.1329 -20.206,-3.186 -20.236,-5.8516 0.049,-2.7689 9.108,-5.8553 21.248,-5.8553 11.902,0.1329 20.202,3.1861 20.232,5.8516 -0.03,2.7652 -9.11,5.8553 -21.244,5.8553 z"
     fill="url(#paint0_radial_105_730)"
     id="path39"
     style="fill:url(#paint0_radial_105_730)" />
  <path
     d="m 978.82,76.311099 c -4.609,0.0139 -9.139,-1.1872 -13.128,-3.4806 -3.988,-2.2934 -7.292,-5.5969 -9.573,-9.5728 -2.281,-3.976 -3.458,-8.4819 -3.41,-13.0572 0.047,-4.5753 1.318,-9.056 3.681,-12.9842 2.364,-3.9282 5.736,-7.1631 9.771,-9.374 4.036,-2.2109 8.59,-3.3187 13.198,-3.21 4.608,0.1087 9.101,1.4298 13.031,3.8285 3.92,2.3987 7.14,5.7888 9.31,9.824 2.12,3.9309 3.18,8.3407 3.08,12.7996 -0.1,4.459 -1.37,8.8152 -3.67,12.6444 -2.31,3.8292 -5.57,7.0007 -9.48,9.2057 -3.9,2.205 -8.317,3.3683 -12.81,3.3766 z m -0.082,-49.9067 c -5.304,0.0111 -10.458,1.7482 -14.673,4.945 -4.215,3.1968 -7.257,7.6771 -8.662,12.7545 -1.404,5.0775 -1.093,10.472 0.886,15.3572 1.979,4.8851 5.516,8.9916 10.071,11.6902 4.555,2.6986 9.875,3.8406 15.146,3.251 5.274,-0.5897 10.204,-2.8784 14.034,-6.5156 3.84,-3.6372 6.37,-8.4222 7.2,-13.6221 0.83,-5.1999 -0.07,-10.5278 -2.58,-15.1676 -2.08,-3.8413 -5.17,-7.0504 -8.94,-9.2856 -3.78,-2.2352 -8.088,-3.4127 -12.482,-3.407 z"
     fill="#010101"
     id="path41" />
  <path
     d="m 985.48,72.837699 c -0.02,-1.9752 -2.896,-3.4667 -6.69,-3.4667 -3.793,0 -6.694,1.4767 -6.694,3.4667 v 0.0258 c 0.026,1.9752 2.901,3.4667 6.694,3.4667 3.794,0 6.69,-1.4768 6.69,-3.4667 z m -6.69,1.8459 c -3.008,0 -4.927,-1.078 -4.95,-1.8459 -0.022,-0.7679 1.942,-1.846 4.95,-1.846 3.009,0 4.925,1.0817 4.947,1.846 0.022,0.7642 -1.953,1.8311 -4.958,1.8311 z"
     fill="url(#paint1_radial_105_730)"
     id="path43"
     style="fill:url(#paint1_radial_105_730)" />
  <path
     d="m 1004.8,50.495199 c -0.08,-5.1133 -13.14,-8.0298 -25.426,-8.1554 -13.017,0 -26.543,3.0643 -26.617,8.1554 0,0 0,0 0,0.0221 0.074,5.1133 13.132,8.0299 25.423,8.1554 13.02,0 26.54,-3.0643 26.62,-8.1554 0,0 0,-0.0147 0,-0.0221 z m -26.612,6.4312 c -13.917,-0.144 -23.624,-3.4999 -23.672,-6.4275 0.048,-3.0384 10.662,-6.4313 24.851,-6.4313 13.913,0.144 23.623,3.4999 23.673,6.4276 -0.05,3.0384 -10.66,6.4312 -24.852,6.4312 z"
     fill="url(#paint2_radial_105_730)"
     id="path45"
     style="fill:url(#paint2_radial_105_730)" />
  <path
     d="m 979.278,30.732399 c -11.292,0 -22.97,2.8465 -22.97,7.6016 0,4.7551 11.303,7.4871 21.943,7.6052 11.289,0 22.969,-2.8464 22.969,-7.6052 0,-4.7588 -11.29,-7.4834 -21.942,-7.6016 z m -1.001,13.4606 c -11.901,-0.1255 -20.198,-3.1935 -20.198,-5.859 0,-2.7578 9.074,-5.8553 21.199,-5.8553 11.902,0.1329 20.192,3.1934 20.192,5.8553 0.01,2.78 -9.06,5.859 -21.193,5.859 z"
     fill="url(#paint3_radial_105_730)"
     id="path47"
     style="fill:url(#paint3_radial_105_730)" />
  <path
     d="m 978.69,24.636699 c -1.893,0 -6.293,0.2843 -6.293,2.9129 0,2.6286 4.4,2.9129 6.293,2.9129 1.893,0 6.29,-0.2843 6.29,-2.9129 0,-2.6286 -4.397,-2.9129 -6.29,-2.9129 z m 0,1.7684 c 2.659,0 4.511,0.6055 4.511,1.1445 0,0.539 -1.859,1.1445 -4.511,1.1445 -2.652,0 -4.511,-0.6018 -4.511,-1.1445 0,-0.5427 1.852,-1.1445 4.511,-1.1445 z"
     fill="#000000"
     id="path49" />
  <path
     d="m 989.69,66.147399 c -0.11,0.0011 -0.21,0.0097 -0.32,0.0258 l -9.784,-16.7721 -8.907,-15.2807 c 0.317,-0.3937 0.49,-0.8832 0.489,-1.3875 -10e-4,-0.5042 -0.175,-0.9931 -0.494,-1.3858 -0.318,-0.3927 -0.762,-0.6658 -1.259,-0.774 -0.496,-0.1082 -1.014,-0.0452 -1.469,0.1788 -0.455,0.2239 -0.82,0.5953 -1.034,1.0527 -0.214,0.4575 -0.264,0.9736 -0.142,1.4632 0.122,0.4895 0.408,0.9232 0.812,1.2292 0.404,0.3061 0.901,0.4663 1.409,0.4541 0.098,-0.004 0.196,-0.0139 0.293,-0.0296 l 8.908,15.2807 4.024,6.9075 5.744,9.8462 c -0.32,0.3888 -0.5,0.8749 -0.51,1.3781 -0.01,0.5033 0.16,0.9938 0.47,1.3907 0.31,0.3969 0.75,0.6765 1.25,0.7929 0.49,0.1164 1.01,0.0625 1.47,-0.1527 0.45,-0.2152 0.83,-0.5789 1.05,-1.0313 0.22,-0.4523 0.28,-0.9664 0.17,-1.4574 -0.11,-0.491 -0.39,-0.9298 -0.78,-1.244 -0.4,-0.3143 -0.89,-0.4852 -1.4,-0.4848 z"
     fill="url(#paint4_radial_105_730)"
     id="path51"
     style="fill:url(#paint4_radial_105_730)" />
  <path
     d="m 23.570001,30.499999 h 1.848 v -9.772 h -1.848 v 4.004 h -4.074 v -4.004 h -1.848 v 9.772 h 1.848 v -4.13 h 4.074 z m 5.0845,-8.372 c 0.728,0 1.05,-0.378 1.05,-0.896 v -0.28 c 0,-0.518 -0.322,-0.896 -1.05,-0.896 -0.742,0 -1.05,0.378 -1.05,0.896 v 0.28 c 0,0.518 0.308,0.896 1.05,0.896 z m -0.896,8.372 h 1.792 v -7.308 h -1.792 z m 10.6231,0.616 c 0,-1.316 -0.77,-2.086 -2.562,-2.086 h -1.96 c -0.644,0 -0.952,-0.182 -0.952,-0.546 0,-0.322 0.238,-0.532 0.518,-0.658 0.322,0.084 0.7,0.126 1.12,0.126 1.988,0 3.024,-0.98 3.024,-2.45 0,-0.896 -0.378,-1.61 -1.134,-2.03 v -0.196 h 1.554 v -1.372 h -1.134 c -0.672,0 -1.036,0.35 -1.036,1.064 v 0.238 c -0.364,-0.126 -0.826,-0.182 -1.274,-0.182 -1.974,0 -3.024,0.994 -3.024,2.478 0,0.966 0.448,1.722 1.33,2.128 v 0.056 c -0.7,0.154 -1.344,0.532 -1.344,1.288 0,0.588 0.336,1.064 0.938,1.218 v 0.154 c -0.812,0.126 -1.302,0.588 -1.302,1.4 0,1.078 0.938,1.722 3.402,1.722 2.8,0 3.836,-0.826 3.836,-2.352 z m -1.68,0.21 c 0,0.616 -0.518,0.91 -1.68,0.91 h -0.896 c -1.12,0 -1.54,-0.336 -1.54,-0.896 0,-0.294 0.112,-0.56 0.378,-0.756 h 2.492 c 0.91,0 1.246,0.28 1.246,0.742 z m -2.156,-4.592 c -0.854,0 -1.316,-0.392 -1.316,-1.12 v -0.238 c 0,-0.742 0.462,-1.12 1.316,-1.12 0.854,0 1.316,0.378 1.316,1.12 v 0.238 c 0,0.728 -0.462,1.12 -1.316,1.12 z m 5.0309,3.766 h 1.792 v -4.83 c 0,-0.784 0.714,-1.176 1.456,-1.176 0.854,0 1.204,0.532 1.204,1.568 v 4.438 h 1.792 v -4.62 c 0,-1.82 -0.84,-2.856 -2.338,-2.856 -1.134,0 -1.75,0.602 -2.044,1.386 h -0.07 v -4.27 h -1.792 z m 14.6171,0 v -1.428 h -0.966 v -8.932 h -1.792 v 8.596 c 0,1.12 0.574,1.764 1.792,1.764 z m 4.4712,0.168 c 1.358,0 2.422,-0.518 3.024,-1.344 l -0.966,-1.078 c -0.448,0.574 -0.98,0.994 -1.862,0.994 -1.176,0 -1.778,-0.714 -1.778,-1.764 v -0.182 h 4.858 v -0.588 c 0,-2.002 -1.05,-3.682 -3.332,-3.682 -2.142,0 -3.388,1.498 -3.388,3.808 0,2.338 1.288,3.836 3.444,3.836 z m -0.028,-6.3 c 0.924,0 1.442,0.686 1.442,1.694 v 0.126 h -2.996 v -0.112 c 0,-1.008 0.616,-1.708 1.554,-1.708 z m 8.6136,6.132 2.45,-7.308 h -1.708 l -0.994,3.15 -0.714,2.604 h -0.098 l -0.714,-2.604 -1.022,-3.15 h -1.764 l 2.436,7.308 z m 6.6505,0.168 c 1.358,0 2.422,-0.518 3.024,-1.344 l -0.966,-1.078 c -0.448,0.574 -0.98,0.994 -1.862,0.994 -1.176,0 -1.778,-0.714 -1.778,-1.764 v -0.182 h 4.858 v -0.588 c 0,-2.002 -1.05,-3.682 -3.332,-3.682 -2.142,0 -3.388,1.498 -3.388,3.808 0,2.338 1.288,3.836 3.444,3.836 z m -0.028,-6.3 c 0.924,0 1.442,0.686 1.442,1.694 v 0.126 h -2.996 v -0.112 c 0,-1.008 0.616,-1.708 1.554,-1.708 z m 7.7986,6.132 v -1.428 h -0.966 v -8.932 h -1.792 v 8.596 c 0,1.12 0.574,1.764 1.792,1.764 z m 6.7915,0.168 c 1.092,0 1.89,-0.49 2.128,-1.428 h 0.084 c 0.112,0.756 0.588,1.26 1.358,1.26 h 0.994 v -1.428 h -0.728 v -3.444 c 0,-1.666 -1.05,-2.604 -3.024,-2.604 -1.47,0 -2.324,0.56 -2.856,1.4 l 1.064,0.952 c 0.35,-0.504 0.826,-0.924 1.666,-0.924 0.952,0 1.358,0.476 1.358,1.288 v 0.532 h -1.246 c -1.988,0 -3.122,0.742 -3.122,2.24 0,1.302 0.84,2.156 2.324,2.156 z m 0.602,-1.302 c -0.7,0 -1.106,-0.294 -1.106,-0.882 v -0.238 c 0,-0.574 0.462,-0.896 1.4,-0.896 h 1.148 v 0.966 c 0,0.686 -0.644,1.05 -1.442,1.05 z m 5.573,3.934 h 1.792 v -4.018 h 0.056 c 0.28,0.826 1.05,1.386 2.016,1.386 1.847999,0 2.869999,-1.386 2.869999,-3.836 0,-2.436 -1.022,-3.808 -2.869999,-3.808 -0.966,0 -1.75,0.532 -2.016,1.372 h -0.056 v -1.204 h -1.792 z m 3.29,-4.116 c -0.854,0 -1.498,-0.434 -1.498,-1.19 v -2.324 c 0,-0.714 0.644,-1.176 1.498,-1.176 0.924,0 1.568,0.686 1.568,1.722 v 1.26 c 0,1.036 -0.644,1.708 -1.568,1.708 z m 5.263999,4.116 h 1.792 v -4.018 h 0.056 c 0.28,0.826 1.05,1.386 2.016,1.386 1.848,0 2.87,-1.386 2.87,-3.836 0,-2.436 -1.022,-3.808 -2.87,-3.808 -0.966,0 -1.75,0.532 -2.016,1.372 h -0.056 v -1.204 h -1.792 z m 3.29,-4.116 c -0.854,0 -1.498,-0.434 -1.498,-1.19 v -2.324 c 0,-0.714 0.644,-1.176 1.498,-1.176 0.924,0 1.568,0.686 1.568,1.722 v 1.26 c 0,1.036 -0.644,1.708 -1.568,1.708 z m 8.023,1.316 v -1.428 h -0.966 v -8.932 h -1.792 v 8.596 c 0,1.12 0.574,1.764 1.792,1.764 z m 2.413,-8.372 c 0.728,0 1.05,-0.378 1.05,-0.896 v -0.28 c 0,-0.518 -0.322,-0.896 -1.05,-0.896 -0.742,0 -1.05,0.378 -1.05,0.896 v 0.28 c 0,0.518 0.308,0.896 1.05,0.896 z m -0.896,8.372 h 1.792 v -7.308 h -1.792 z m 6.913,0.168 c 1.414,0 2.436,-0.644 2.912,-1.932 l -1.372,-0.658 c -0.266,0.658 -0.686,1.148 -1.54,1.148 -0.994,0 -1.498,-0.686 -1.498,-1.708 v -1.33 c 0,-1.022 0.504,-1.722 1.498,-1.722 0.77,0 1.232,0.448 1.4,1.064 l 1.47,-0.658 c -0.434,-1.148 -1.4,-1.848 -2.87,-1.848 -2.156,0 -3.374,1.47 -3.374,3.808 0,2.352 1.218,3.836 3.374,3.836 z m 6.26,0 c 1.092,0 1.89,-0.49 2.128,-1.428 h 0.084 c 0.112,0.756 0.588,1.26 1.358,1.26 h 0.994 v -1.428 h -0.728 v -3.444 c 0,-1.666 -1.05,-2.604 -3.024,-2.604 -1.47,0 -2.324,0.56 -2.856,1.4 l 1.064,0.952 c 0.35,-0.504 0.826,-0.924 1.666,-0.924 0.952,0 1.358,0.476 1.358,1.288 v 0.532 h -1.246 c -1.988,0 -3.122,0.742 -3.122,2.24 0,1.302 0.84,2.156 2.324,2.156 z m 0.602,-1.302 c -0.7,0 -1.106,-0.294 -1.106,-0.882 v -0.238 c 0,-0.574 0.462,-0.896 1.4,-0.896 h 1.148 v 0.966 c 0,0.686 -0.644,1.05 -1.442,1.05 z m 7.799,1.134 h 1.288 v -1.428 h -1.386 v -4.452 h 1.498 v -1.428 h -1.498 v -2.002 h -1.61 v 1.246 c 0,0.504 -0.168,0.756 -0.7,0.756 h -0.56 v 1.428 h 1.078 v 4.018 c 0,1.19 0.658,1.862 1.89,1.862 z m 4.011,-8.372 c 0.728,0 1.05,-0.378 1.05,-0.896 v -0.28 c 0,-0.518 -0.322,-0.896 -1.05,-0.896 -0.742,0 -1.05,0.378 -1.05,0.896 v 0.28 c 0,0.518 0.308,0.896 1.05,0.896 z m -0.896,8.372 h 1.792 v -7.308 h -1.792 z m 6.927,0.168 c 2.1,0 3.402,-1.484 3.402,-3.836 0,-2.338 -1.302,-3.808 -3.402,-3.808 -2.086,0 -3.388,1.47 -3.388,3.808 0,2.352 1.302,3.836 3.388,3.836 z m 0,-1.442 c -0.924,0 -1.512,-0.602 -1.512,-1.708 v -1.358 c 0,-1.092 0.588,-1.694 1.512,-1.694 0.938,0 1.526,0.602 1.526,1.694 v 1.358 c 0,1.106 -0.588,1.708 -1.526,1.708 z m 6.943,1.274 v -4.83 c 0,-0.784 0.714,-1.176 1.456,-1.176 0.854,0 1.204,0.532 1.204,1.568 v 4.438 h 1.792 v -4.62 c 0,-1.82 -0.84,-2.856 -2.338,-2.856 -1.134,0 -1.75,0.602 -2.044,1.386 h -0.07 v -1.218 h -1.792 v 7.308 z m 8.992,0.168 c 1.82,0 3.01,-0.98 3.01,-2.394 0,-1.218 -0.77,-1.932 -2.366,-2.156 l -0.742,-0.098 c -0.686,-0.112 -0.952,-0.336 -0.952,-0.826 0,-0.448 0.336,-0.756 1.106,-0.756 0.714,0 1.33,0.336 1.75,0.784 l 1.05,-1.05 c -0.7,-0.728 -1.428,-1.148 -2.856,-1.148 -1.666,0 -2.772,0.896 -2.772,2.31 0,1.33 0.868,2.016 2.436,2.212 l 0.728,0.098 c 0.644,0.084 0.896,0.35 0.896,0.77 0,0.518 -0.364,0.84 -1.218,0.84 -0.826,0 -1.47,-0.378 -2.002,-0.994 l -1.092,1.064 c 0.728,0.84 1.638,1.344 3.024,1.344 z"
     fill="#000000"
     id="path53" />
  <path
     d="m 21.442001,286.668 c 1.75,0 2.912,-0.854 3.612,-2.31 l -1.498,-0.882 c -0.322,0.882 -1.008,1.554 -2.114,1.554 -1.372,0 -2.254,-0.952 -2.254,-2.632 v -1.54 c 0,-1.666 0.882,-2.66 2.254,-2.66 1.092,0 1.708,0.588 1.988,1.456 l 1.582,-0.84 c -0.686,-1.512 -1.82,-2.254 -3.57,-2.254 -2.576,0 -4.214,1.834 -4.214,5.124 0,3.29 1.638,4.984 4.214,4.984 z m 8.1344,0 c 2.1,0 3.402,-1.484 3.402,-3.836 0,-2.338 -1.302,-3.808 -3.402,-3.808 -2.086,0 -3.388,1.47 -3.388,3.808 0,2.352 1.302,3.836 3.388,3.836 z m 0,-1.442 c -0.924,0 -1.512,-0.602 -1.512,-1.708 v -1.358 c 0,-1.092 0.588,-1.694 1.512,-1.694 0.938,0 1.526,0.602 1.526,1.694 v 1.358 c 0,1.106 -0.588,1.708 -1.526,1.708 z m 6.9427,1.274 v -4.48 c 0,-0.798 0.63,-1.134 1.834,-1.134 h 0.56 v -1.694 h -0.392 c -1.162,0 -1.75,0.742 -1.932,1.512 h -0.07 v -1.512 h -1.792 v 7.308 z m 6.7497,0.168 c 1.358,0 2.422,-0.518 3.024,-1.344 l -0.966,-1.078 c -0.448,0.574 -0.98,0.994 -1.862,0.994 -1.176,0 -1.778,-0.714 -1.778,-1.764 v -0.182 h 4.858 v -0.588 c 0,-2.002 -1.05,-3.682 -3.332,-3.682 -2.142,0 -3.388,1.498 -3.388,3.808 0,2.338 1.288,3.836 3.444,3.836 z m -0.028,-6.3 c 0.924,0 1.442,0.686 1.442,1.694 v 0.126 h -2.996 v -0.112 c 0,-1.008 0.616,-1.708 1.554,-1.708 z m 12.4153,6.3 c 1.75,0 2.912,-0.854 3.612,-2.31 l -1.498,-0.882 c -0.322,0.882 -1.008,1.554 -2.114,1.554 -1.372,0 -2.254,-0.952 -2.254,-2.632 v -1.54 c 0,-1.666 0.882,-2.66 2.254,-2.66 1.092,0 1.708,0.588 1.988,1.456 l 1.582,-0.84 c -0.686,-1.512 -1.82,-2.254 -3.57,-2.254 -2.576,0 -4.214,1.834 -4.214,5.124 0,3.29 1.638,4.984 4.214,4.984 z m 7.0424,0 c 1.092,0 1.89,-0.49 2.128,-1.428 h 0.084 c 0.112,0.756 0.588,1.26 1.358,1.26 h 0.994 v -1.428 h -0.728 v -3.444 c 0,-1.666 -1.05,-2.604 -3.024,-2.604 -1.47,0 -2.324,0.56 -2.856,1.4 l 1.064,0.952 c 0.35,-0.504 0.826,-0.924 1.666,-0.924 0.952,0 1.358,0.476 1.358,1.288 v 0.532 h -1.246 c -1.988,0 -3.122,0.742 -3.122,2.24 0,1.302 0.84,2.156 2.324,2.156 z m 0.602,-1.302 c -0.7,0 -1.106,-0.294 -1.106,-0.882 v -0.238 c 0,-0.574 0.462,-0.896 1.4,-0.896 h 1.148 v 0.966 c 0,0.686 -0.644,1.05 -1.442,1.05 z m 5.5723,3.934 h 1.792 v -4.018 h 0.056 c 0.28,0.826 1.05,1.386 2.016,1.386 1.848,0 2.87,-1.386 2.87,-3.836 0,-2.436 -1.022,-3.808 -2.87,-3.808 -0.966,0 -1.75,0.532 -2.016,1.372 h -0.056 v -1.204 h -1.792 z m 3.29,-4.116 c -0.854,0 -1.498,-0.434 -1.498,-1.19 v -2.324 c 0,-0.714 0.644,-1.176 1.498,-1.176 0.924,0 1.568,0.686 1.568,1.722 v 1.26 c 0,1.036 -0.644,1.708 -1.568,1.708 z m 7.0705,1.484 c 1.092,0 1.89,-0.49 2.128,-1.428 h 0.084 c 0.112,0.756 0.588,1.26 1.358,1.26 h 0.994 v -1.428 h -0.728 v -3.444 c 0,-1.666 -1.05,-2.604 -3.024,-2.604 -1.47,0 -2.324,0.56 -2.856,1.4 l 1.064,0.952 c 0.35,-0.504 0.826,-0.924 1.666,-0.924 0.952,0 1.358,0.476 1.358,1.288 v 0.532 h -1.246 c -1.988,0 -3.122,0.742 -3.122,2.24 0,1.302 0.84,2.156 2.324,2.156 z m 0.602,-1.302 c -0.7,0 -1.106,-0.294 -1.106,-0.882 v -0.238 c 0,-0.574 0.462,-0.896 1.4,-0.896 h 1.148 v 0.966 c 0,0.686 -0.644,1.05 -1.442,1.05 z m 5.5727,1.134 h 1.792 v -1.218 h 0.056 c 0.28,0.826 1.05,1.386 2.016,1.386 1.848,0 2.87,-1.386 2.87,-3.836 0,-2.436 -1.022,-3.808 -2.87,-3.808 -0.966,0 -1.75,0.532 -2.016,1.372 h -0.056 v -4.256 h -1.792 z m 3.29,-1.316 c -0.854,0 -1.498,-0.434 -1.498,-1.19 v -2.324 c 0,-0.714 0.644,-1.176 1.498,-1.176 0.924,0 1.568,0.686 1.568,1.722 v 1.26 c 0,1.036 -0.644,1.708 -1.568,1.708 z m 6.16,-7.056 c 0.728,0 1.05,-0.378 1.05,-0.896 v -0.28 c 0,-0.518 -0.322,-0.896 -1.05,-0.896 -0.742,0 -1.05,0.378 -1.05,0.896 v 0.28 c 0,0.518 0.308,0.896 1.05,0.896 z m -0.896,8.372 h 1.792 v -7.308 h -1.792 z m 6.786999,0 v -1.428 h -0.965999 v -8.932 h -1.792 v 8.596 c 0,1.12 0.574,1.764 1.792,1.764 z m 2.414,-8.372 c 0.728,0 1.05,-0.378 1.05,-0.896 v -0.28 c 0,-0.518 -0.322,-0.896 -1.05,-0.896 -0.742,0 -1.05,0.378 -1.05,0.896 v 0.28 c 0,0.518 0.308,0.896 1.05,0.896 z m -0.896,8.372 h 1.792 v -7.308 h -1.792 z m 6.311,0 h 1.288 v -1.428 h -1.386 v -4.452 h 1.498 v -1.428 h -1.498 v -2.002 h -1.61 v 1.246 c 0,0.504 -0.168,0.756 -0.7,0.756 h -0.56 v 1.428 h 1.078 v 4.018 c 0,1.19 0.658,1.862 1.89,1.862 z m 4.01,-8.372 c 0.728,0 1.05,-0.378 1.05,-0.896 v -0.28 c 0,-0.518 -0.322,-0.896 -1.05,-0.896 -0.742,0 -1.05,0.378 -1.05,0.896 v 0.28 c 0,0.518 0.308,0.896 1.05,0.896 z m -0.896,8.372 h 1.792 v -7.308 h -1.792 z m 6.983,0.168 c 1.358,0 2.422,-0.518 3.024,-1.344 l -0.966,-1.078 c -0.448,0.574 -0.98,0.994 -1.862,0.994 -1.176,0 -1.778,-0.714 -1.778,-1.764 v -0.182 h 4.858 v -0.588 c 0,-2.002 -1.05,-3.682 -3.332,-3.682 -2.142,0 -3.388,1.498 -3.388,3.808 0,2.338 1.288,3.836 3.444,3.836 z m -0.028,-6.3 c 0.924,0 1.442,0.686 1.442,1.694 v 0.126 h -2.996 v -0.112 c 0,-1.008 0.616,-1.708 1.554,-1.708 z m 7.435,6.3 c 1.82,0 3.01,-0.98 3.01,-2.394 0,-1.218 -0.77,-1.932 -2.366,-2.156 l -0.742,-0.098 c -0.686,-0.112 -0.952,-0.336 -0.952,-0.826 0,-0.448 0.336,-0.756 1.106,-0.756 0.714,0 1.33,0.336 1.75,0.784 l 1.05,-1.05 c -0.7,-0.728 -1.428,-1.148 -2.856,-1.148 -1.666,0 -2.772,0.896 -2.772,2.31 0,1.33 0.868,2.016 2.436,2.212 l 0.728,0.098 c 0.644,0.084 0.896,0.35 0.896,0.77 0,0.518 -0.364,0.84 -1.218,0.84 -0.826,0 -1.47,-0.378 -2.002,-0.994 l -1.092,1.064 c 0.728,0.84 1.638,1.344 3.024,1.344 z"
     fill="#000000"
     id="path55" />
  <path
     d="m 599.346,30.499999 v -1.638 h -3.85 v -8.134 h -1.848 v 9.772 z m 4.412,0.168 c 2.1,0 3.402,-1.484 3.402,-3.836 0,-2.338 -1.302,-3.808 -3.402,-3.808 -2.086,0 -3.388,1.47 -3.388,3.808 0,2.352 1.302,3.836 3.388,3.836 z m 0,-1.442 c -0.924,0 -1.512,-0.602 -1.512,-1.708 v -1.358 c 0,-1.092 0.588,-1.694 1.512,-1.694 0.938,0 1.526,0.602 1.526,1.694 v 1.358 c 0,1.106 -0.588,1.708 -1.526,1.708 z m 6.33,1.274 h 1.904 l 0.924,-3.22 0.532,-1.988 h 0.042 l 0.546,1.988 0.938,3.22 h 1.932 l 2.002,-7.308 h -1.666 l -0.728,3.01 -0.574,2.506 h -0.056 l -0.686,-2.506 -0.882,-3.01 h -1.624 l -0.854,3.01 -0.672,2.506 h -0.056 l -0.574,-2.506 -0.742,-3.01 h -1.722 z m 16.555,0 v -1.428 h -0.966 v -8.932 h -1.792 v 8.596 c 0,1.12 0.574,1.764 1.792,1.764 z m 4.471,0.168 c 1.358,0 2.422,-0.518 3.024,-1.344 l -0.966,-1.078 c -0.448,0.574 -0.98,0.994 -1.862,0.994 -1.176,0 -1.778,-0.714 -1.778,-1.764 v -0.182 h 4.858 v -0.588 c 0,-2.002 -1.05,-3.682 -3.332,-3.682 -2.142,0 -3.388,1.498 -3.388,3.808 0,2.338 1.288,3.836 3.444,3.836 z m -0.028,-6.3 c 0.924,0 1.442,0.686 1.442,1.694 v 0.126 h -2.996 v -0.112 c 0,-1.008 0.616,-1.708 1.554,-1.708 z m 8.614,6.132 2.45,-7.308 h -1.708 l -0.994,3.15 -0.714,2.604 h -0.098 l -0.714,-2.604 -1.022,-3.15 h -1.764 l 2.436,7.308 z m 6.65,0.168 c 1.358,0 2.422,-0.518 3.024,-1.344 l -0.966,-1.078 c -0.448,0.574 -0.98,0.994 -1.862,0.994 -1.176,0 -1.778,-0.714 -1.778,-1.764 v -0.182 h 4.858 v -0.588 c 0,-2.002 -1.05,-3.682 -3.332,-3.682 -2.142,0 -3.388,1.498 -3.388,3.808 0,2.338 1.288,3.836 3.444,3.836 z m -0.028,-6.3 c 0.924,0 1.442,0.686 1.442,1.694 v 0.126 h -2.996 v -0.112 c 0,-1.008 0.616,-1.708 1.554,-1.708 z m 7.799,6.132 v -1.428 h -0.966 v -8.932 h -1.792 v 8.596 c 0,1.12 0.574,1.764 1.792,1.764 z m 6.792,0.168 c 1.092,0 1.89,-0.49 2.128,-1.428 h 0.084 c 0.112,0.756 0.588,1.26 1.358,1.26 h 0.994 v -1.428 h -0.728 v -3.444 c 0,-1.666 -1.05,-2.604 -3.024,-2.604 -1.47,0 -2.324,0.56 -2.856,1.4 l 1.064,0.952 c 0.35,-0.504 0.826,-0.924 1.666,-0.924 0.952,0 1.358,0.476 1.358,1.288 v 0.532 h -1.246 c -1.988,0 -3.122,0.742 -3.122,2.24 0,1.302 0.84,2.156 2.324,2.156 z m 0.602,-1.302 c -0.7,0 -1.106,-0.294 -1.106,-0.882 v -0.238 c 0,-0.574 0.462,-0.896 1.4,-0.896 h 1.148 v 0.966 c 0,0.686 -0.644,1.05 -1.442,1.05 z m 5.572,3.934 h 1.792 v -4.018 h 0.056 c 0.28,0.826 1.05,1.386 2.016,1.386 1.848,0 2.87,-1.386 2.87,-3.836 0,-2.436 -1.022,-3.808 -2.87,-3.808 -0.966,0 -1.75,0.532 -2.016,1.372 h -0.056 v -1.204 h -1.792 z m 3.29,-4.116 c -0.854,0 -1.498,-0.434 -1.498,-1.19 v -2.324 c 0,-0.714 0.644,-1.176 1.498,-1.176 0.924,0 1.568,0.686 1.568,1.722 v 1.26 c 0,1.036 -0.644,1.708 -1.568,1.708 z m 5.265,4.116 h 1.792 v -4.018 h 0.056 c 0.28,0.826 1.05,1.386 2.016,1.386 1.848,0 2.87,-1.386 2.87,-3.836 0,-2.436 -1.022,-3.808 -2.87,-3.808 -0.966,0 -1.75,0.532 -2.016,1.372 h -0.056 v -1.204 h -1.792 z m 3.29,-4.116 c -0.854,0 -1.498,-0.434 -1.498,-1.19 v -2.324 c 0,-0.714 0.644,-1.176 1.498,-1.176 0.924,0 1.568,0.686 1.568,1.722 v 1.26 c 0,1.036 -0.644,1.708 -1.568,1.708 z m 8.022,1.316 v -1.428 h -0.966 v -8.932 h -1.792 v 8.596 c 0,1.12 0.574,1.764 1.792,1.764 z m 2.413,-8.372 c 0.728,0 1.05,-0.378 1.05,-0.896 v -0.28 c 0,-0.518 -0.322,-0.896 -1.05,-0.896 -0.742,0 -1.05,0.378 -1.05,0.896 v 0.28 c 0,0.518 0.308,0.896 1.05,0.896 z m -0.896,8.372 h 1.792 v -7.308 h -1.792 z m 6.913,0.168 c 1.414,0 2.436,-0.644 2.912,-1.932 l -1.372,-0.658 c -0.266,0.658 -0.686,1.148 -1.54,1.148 -0.994,0 -1.498,-0.686 -1.498,-1.708 v -1.33 c 0,-1.022 0.504,-1.722 1.498,-1.722 0.77,0 1.232,0.448 1.4,1.064 l 1.47,-0.658 c -0.434,-1.148 -1.4,-1.848 -2.87,-1.848 -2.156,0 -3.374,1.47 -3.374,3.808 0,2.352 1.218,3.836 3.374,3.836 z m 6.26,0 c 1.092,0 1.89,-0.49 2.128,-1.428 h 0.084 c 0.112,0.756 0.588,1.26 1.358,1.26 h 0.994 v -1.428 h -0.728 v -3.444 c 0,-1.666 -1.05,-2.604 -3.024,-2.604 -1.47,0 -2.324,0.56 -2.856,1.4 l 1.064,0.952 c 0.35,-0.504 0.826,-0.924 1.666,-0.924 0.952,0 1.358,0.476 1.358,1.288 v 0.532 h -1.246 c -1.988,0 -3.122,0.742 -3.122,2.24 0,1.302 0.84,2.156 2.324,2.156 z m 0.602,-1.302 c -0.7,0 -1.106,-0.294 -1.106,-0.882 v -0.238 c 0,-0.574 0.462,-0.896 1.4,-0.896 h 1.148 v 0.966 c 0,0.686 -0.644,1.05 -1.442,1.05 z m 7.8,1.134 h 1.288 v -1.428 h -1.386 v -4.452 h 1.498 v -1.428 h -1.498 v -2.002 h -1.61 v 1.246 c 0,0.504 -0.168,0.756 -0.7,0.756 h -0.56 v 1.428 h 1.078 v 4.018 c 0,1.19 0.658,1.862 1.89,1.862 z m 4.01,-8.372 c 0.728,0 1.05,-0.378 1.05,-0.896 v -0.28 c 0,-0.518 -0.322,-0.896 -1.05,-0.896 -0.742,0 -1.05,0.378 -1.05,0.896 v 0.28 c 0,0.518 0.308,0.896 1.05,0.896 z m -0.896,8.372 h 1.792 v -7.308 h -1.792 z m 6.927,0.168 c 2.1,0 3.402,-1.484 3.402,-3.836 0,-2.338 -1.302,-3.808 -3.402,-3.808 -2.086,0 -3.388,1.47 -3.388,3.808 0,2.352 1.302,3.836 3.388,3.836 z m 0,-1.442 c -0.924,0 -1.512,-0.602 -1.512,-1.708 v -1.358 c 0,-1.092 0.588,-1.694 1.512,-1.694 0.938,0 1.526,0.602 1.526,1.694 v 1.358 c 0,1.106 -0.588,1.708 -1.526,1.708 z m 6.943,1.274 v -4.83 c 0,-0.784 0.714,-1.176 1.456,-1.176 0.854,0 1.204,0.532 1.204,1.568 v 4.438 h 1.792 v -4.62 c 0,-1.82 -0.84,-2.856 -2.338,-2.856 -1.134,0 -1.75,0.602 -2.044,1.386 h -0.07 v -1.218 h -1.792 v 7.308 z m 8.992,0.168 c 1.82,0 3.01,-0.98 3.01,-2.394 0,-1.218 -0.77,-1.932 -2.366,-2.156 l -0.742,-0.098 c -0.686,-0.112 -0.952,-0.336 -0.952,-0.826 0,-0.448 0.336,-0.756 1.106,-0.756 0.714,0 1.33,0.336 1.75,0.784 l 1.05,-1.05 c -0.7,-0.728 -1.428,-1.148 -2.856,-1.148 -1.666,0 -2.772,0.896 -2.772,2.31 0,1.33 0.868,2.016 2.436,2.212 l 0.728,0.098 c 0.644,0.084 0.896,0.35 0.896,0.77 0,0.518 -0.364,0.84 -1.218,0.84 -0.826,0 -1.47,-0.378 -2.002,-0.994 l -1.092,1.064 c 0.728,0.84 1.638,1.344 3.024,1.344 z"
     fill="#000000"
     id="path57" />
  <a href="https://qiskit.org/ecosystem/optimization/">
  <rect
     x="16.908012"
     y="144.908"
     width="255.18398"
     height="79.183975"
     fill="#be95ff"
     stroke="#491d8b"
     id="rect59"
     style="stroke-width:0.816022" />
   </a>
  <path
     d="m 52.692001,193.756 h -2.568 v -2.04 c 3.672,-0.504 5.976,-3.48 5.976,-8.592 0,-5.616 -2.784,-8.664 -7.104,-8.664 -4.32,0 -7.104,3.048 -7.104,8.664 0,5.256 2.448,8.28 6.312,8.64 v 1.704 c 0,1.128 0.696,1.968 2.016,1.968 h 2.472 z m -3.696,-3.768 c -2.904,0 -4.944,-2.16 -4.944,-5.472 v -2.784 c 0,-3.312 2.04,-5.472 4.944,-5.472 2.904,0 4.944,2.16 4.944,5.472 v 2.784 c 0,3.312 -2.04,5.472 -4.944,5.472 z m 11.4962,-13.776 c 0.816,0 1.176,-0.432 1.176,-1.08 v -0.312 c 0,-0.648 -0.36,-1.08 -1.176,-1.08 -0.816,0 -1.176,0.432 -1.176,1.08 v 0.312 c 0,0.648 0.36,1.08 1.176,1.08 z m -0.96,15.288 h 1.92 v -12.384 h -1.92 z m 9.72,0.288 c 2.832,0 4.584,-1.464 4.584,-3.864 0,-1.872 -1.056,-3.072 -3.792,-3.48 l -0.96,-0.144 c -1.536,-0.24 -2.376,-0.72 -2.376,-1.92 0,-1.176 0.84,-1.92 2.424,-1.92 1.584,0 2.64,0.744 3.192,1.512 l 1.272,-1.152 c -1.008,-1.248 -2.328,-1.992 -4.32,-1.992 -2.52,0 -4.416,1.2 -4.416,3.648 0,2.304 1.704,3.24 3.984,3.576 l 0.984,0.144 c 1.632,0.24 2.16,0.984 2.16,1.944 0,1.272 -0.96,2.016 -2.592,2.016 -1.56,0 -2.712,-0.696 -3.672,-1.896 l -1.368,1.104 c 1.104,1.464 2.616,2.424 4.896,2.424 z m 7.9753,-0.288 h 1.92 v -4.416 l 1.848,-1.896 4.1045,6.312 h 2.328 l -5.0405,-7.488 4.5845,-4.896 h -2.328 l -3.5045,3.768 -1.896,2.112 h -0.096 V 173.74 h -1.92 z m 13.6165,-15.288 c 0.816,0 1.176,-0.432 1.176,-1.08 v -0.312 c 0,-0.648 -0.36,-1.08 -1.176,-1.08 -0.816,0 -1.176,0.432 -1.176,1.08 v 0.312 c 0,0.648 0.36,1.08 1.176,1.08 z m -0.96,15.288 h 1.92 v -12.384 h -1.92 z m 11.135999,0 v -1.68 h -2.519999 v -9.024 H 101.212 v -1.68 h -2.711999 v -3.432 h -1.728 v 2.304 c 0,0.84 -0.264,1.128 -1.08,1.128 h -1.152 v 1.68 h 2.04 v 8.664 c 0,1.2 0.72,2.04 2.04,2.04 z m 15.406,0.288 c 4.32,0 7.104,-3.048 7.104,-8.664 0,-5.616 -2.784,-8.664 -7.104,-8.664 -4.32,0 -7.104,3.048 -7.104,8.664 0,5.616 2.784,8.664 7.104,8.664 z m 0,-1.8 c -2.904,0 -4.944,-2.16 -4.944,-5.472 v -2.784 c 0,-3.312 2.04,-5.472 4.944,-5.472 2.904,0 4.944,2.16 4.944,5.472 v 2.784 c 0,3.312 -2.04,5.472 -4.944,5.472 z m 10.536,6.312 h 1.92 v -6.816 h 0.096 c 0.744,1.536 1.92,2.304 3.624,2.304 3.096,0 5.04,-2.52 5.04,-6.48 0,-3.96 -1.944,-6.48 -5.04,-6.48 -1.704,0 -2.976,0.744 -3.624,2.304 h -0.096 v -2.016 h -1.92 z m 5.112,-6.24 c -1.752,0 -3.192,-0.912 -3.192,-2.52 v -4.608 c 0,-1.368 1.44,-2.376 3.192,-2.376 2.16,0 3.504,1.488 3.504,3.696 v 2.112 c 0,2.208 -1.344,3.696 -3.504,3.696 z m 13.805,1.44 v -1.68 h -2.52 v -9.024 h 2.712 v -1.68 h -2.712 v -3.432 h -1.728 v 2.304 c 0,0.84 -0.264,1.128 -1.08,1.128 h -1.152 v 1.68 h 2.04 v 8.664 c 0,1.2 0.72,2.04 2.04,2.04 z m 4.238,-15.288 c 0.816,0 1.176,-0.432 1.176,-1.08 v -0.312 c 0,-0.648 -0.36,-1.08 -1.176,-1.08 -0.816,0 -1.176,0.432 -1.176,1.08 v 0.312 c 0,0.648 0.36,1.08 1.176,1.08 z m -0.96,15.288 h 1.92 v -12.384 h -1.92 z m 7.92,0 v -8.592 c 0,-1.584 1.44,-2.352 2.952,-2.352 1.824,0 2.664,1.128 2.664,3.336 v 7.608 h 1.92 v -8.592 c 0,-1.584 1.392,-2.352 2.904,-2.352 1.872,0 2.712,1.152 2.712,3.336 v 7.608 h 1.92 v -7.944 c 0,-3 -1.512,-4.728 -4.032,-4.728 -2.112,0 -3.312,1.176 -3.768,2.52 h -0.048 c -0.672,-1.776 -2.16,-2.52 -3.792,-2.52 -1.92,0 -2.784,1.032 -3.336,2.304 h -0.096 v -2.016 h -1.92 V 191.5 Z m 19.993,-15.288 c 0.816,0 1.176,-0.432 1.176,-1.08 v -0.312 c 0,-0.648 -0.36,-1.08 -1.176,-1.08 -0.816,0 -1.176,0.432 -1.176,1.08 v 0.312 c 0,0.648 0.36,1.08 1.176,1.08 z m -0.96,15.288 h 1.92 v -12.384 h -1.92 z m 14.304,0 v -1.68 h -7.368 l 7.176,-9.264 v -1.44 h -9.144 v 1.68 h 6.816 l -7.032,9.096 v 1.608 z m 12.909,0 v -1.68 h -1.416 v -6.816 c 0,-2.616 -1.776,-4.176 -4.752,-4.176 -2.232,0 -3.72,1.104 -4.392,2.424 l 1.152,1.08 c 0.672,-1.128 1.656,-1.848 3.144,-1.848 1.968,0 2.928,0.96 2.928,2.712 v 1.224 h -2.448 c -3.6,0 -5.28,1.296 -5.28,3.624 0,2.304 1.536,3.744 4.152,3.744 1.728,0 3.048,-0.792 3.576,-2.304 h 0.12 c 0.144,1.152 0.72,2.016 2.136,2.016 z m -6.6,-1.344 c -1.488,0 -2.448,-0.696 -2.448,-1.92 v -0.504 c 0,-1.2 0.984,-1.872 3.168,-1.872 h 2.544 v 2.04 c 0,1.272 -1.368,2.256 -3.264,2.256 z m 14.476,1.344 v -1.68 h -2.52 v -9.024 h 2.712 v -1.68 h -2.712 v -3.432 h -1.728 v 2.304 c 0,0.84 -0.264,1.128 -1.08,1.128 h -1.152 v 1.68 h 2.04 v 8.664 c 0,1.2 0.72,2.04 2.04,2.04 z m 4.239,-15.288 c 0.816,0 1.176,-0.432 1.176,-1.08 v -0.312 c 0,-0.648 -0.36,-1.08 -1.176,-1.08 -0.816,0 -1.176,0.432 -1.176,1.08 v 0.312 c 0,0.648 0.36,1.08 1.176,1.08 z m -0.96,15.288 h 1.92 v -12.384 h -1.92 z m 10.68,0.288 c 3.312,0 5.592,-2.544 5.592,-6.48 0,-3.936 -2.28,-6.48 -5.592,-6.48 -3.312,0 -5.592,2.544 -5.592,6.48 0,3.936 2.28,6.48 5.592,6.48 z m 0,-1.704 c -2.064,0 -3.528,-1.272 -3.528,-3.888 v -1.776 c 0,-2.616 1.464,-3.888 3.528,-3.888 2.064,0 3.528,1.272 3.528,3.888 v 1.776 c 0,2.616 -1.464,3.888 -3.528,3.888 z m 10.669,1.416 v -8.592 c 0,-1.584 1.488,-2.352 3.024,-2.352 1.848,0 2.808,1.128 2.808,3.336 v 7.608 h 1.92 v -7.944 c 0,-3 -1.608,-4.728 -4.152,-4.728 -1.848,0 -2.904,0.912 -3.504,2.304 h -0.096 v -2.016 h -1.92 V 191.5 Z"
     fill="#121619"
     id="path61" />
  <a href="https://qiskit.org/ecosystem/dynamics/">
  <rect
     x="592.90802"
     y="144.908"
     width="255.18398"
     height="79.183975"
     fill="#be95ff"
     stroke="#491d8b"
     id="rect63"
     style="stroke-width:0.816022" />
   </a>
  <path
     d="m 628.692,193.756 h -2.568 v -2.04 c 3.672,-0.504 5.976,-3.48 5.976,-8.592 0,-5.616 -2.784,-8.664 -7.104,-8.664 -4.32,0 -7.104,3.048 -7.104,8.664 0,5.256 2.448,8.28 6.312,8.64 v 1.704 c 0,1.128 0.696,1.968 2.016,1.968 h 2.472 z m -3.696,-3.768 c -2.904,0 -4.944,-2.16 -4.944,-5.472 v -2.784 c 0,-3.312 2.04,-5.472 4.944,-5.472 2.904,0 4.944,2.16 4.944,5.472 v 2.784 c 0,3.312 -2.04,5.472 -4.944,5.472 z m 11.496,-13.776 c 0.816,0 1.176,-0.432 1.176,-1.08 v -0.312 c 0,-0.648 -0.36,-1.08 -1.176,-1.08 -0.816,0 -1.176,0.432 -1.176,1.08 v 0.312 c 0,0.648 0.36,1.08 1.176,1.08 z m -0.96,15.288 h 1.92 v -12.384 h -1.92 z m 9.72,0.288 c 2.832,0 4.584,-1.464 4.584,-3.864 0,-1.872 -1.056,-3.072 -3.792,-3.48 l -0.96,-0.144 c -1.536,-0.24 -2.376,-0.72 -2.376,-1.92 0,-1.176 0.84,-1.92 2.424,-1.92 1.584,0 2.64,0.744 3.192,1.512 l 1.272,-1.152 c -1.008,-1.248 -2.328,-1.992 -4.32,-1.992 -2.52,0 -4.416,1.2 -4.416,3.648 0,2.304 1.704,3.24 3.984,3.576 l 0.984,0.144 c 1.632,0.24 2.16,0.984 2.16,1.944 0,1.272 -0.96,2.016 -2.592,2.016 -1.56,0 -2.712,-0.696 -3.672,-1.896 l -1.368,1.104 c 1.104,1.464 2.616,2.424 4.896,2.424 z m 7.976,-0.288 h 1.92 v -4.416 l 1.848,-1.896 4.104,6.312 h 2.328 l -5.04,-7.488 4.584,-4.896 h -2.328 l -3.504,3.768 -1.896,2.112 h -0.096 V 173.74 h -1.92 z m 13.616,-15.288 c 0.816,0 1.176,-0.432 1.176,-1.08 v -0.312 c 0,-0.648 -0.36,-1.08 -1.176,-1.08 -0.816,0 -1.176,0.432 -1.176,1.08 v 0.312 c 0,0.648 0.36,1.08 1.176,1.08 z m -0.96,15.288 h 1.92 v -12.384 h -1.92 z m 11.136,0 v -1.68 h -2.52 v -9.024 h 2.712 v -1.68 H 674.5 v -3.432 h -1.728 v 2.304 c 0,0.84 -0.264,1.128 -1.08,1.128 h -1.152 v 1.68 h 2.04 v 8.664 c 0,1.2 0.72,2.04 2.04,2.04 z m 9.142,0 h 5.616 c 4.176,0 6.864,-2.784 6.864,-8.376 0,-5.592 -2.688,-8.376 -6.864,-8.376 h -5.616 z m 2.016,-1.776 v -13.2 h 3.6 c 2.76,0 4.704,1.92 4.704,5.232 v 2.736 c 0,3.312 -1.944,5.232 -4.704,5.232 z m 18.525,-2.184 -0.672,2.016 h -0.12 l -0.576,-2.016 -2.976,-8.424 h -1.92 l 4.632,12.864 -0.936,2.64 h -1.944 v 1.68 h 0.984 c 1.824,0 2.328,-0.432 2.88,-1.92 l 5.544,-15.264 h -1.896 z m 9.265,3.96 v -8.592 c 0,-1.584 1.488,-2.352 3.024,-2.352 1.848,0 2.808,1.128 2.808,3.336 v 7.608 h 1.92 v -7.944 c 0,-3 -1.608,-4.728 -4.152,-4.728 -1.848,0 -2.904,0.912 -3.504,2.304 h -0.096 v -2.016 h -1.92 V 191.5 Z m 21.8,0 v -1.68 h -1.416 v -6.816 c 0,-2.616 -1.776,-4.176 -4.752,-4.176 -2.232,0 -3.72,1.104 -4.392,2.424 l 1.152,1.08 c 0.672,-1.128 1.656,-1.848 3.144,-1.848 1.968,0 2.928,0.96 2.928,2.712 v 1.224 h -2.448 c -3.6,0 -5.28,1.296 -5.28,3.624 0,2.304 1.536,3.744 4.152,3.744 1.728,0 3.048,-0.792 3.576,-2.304 h 0.12 c 0.144,1.152 0.72,2.016 2.136,2.016 z m -6.6,-1.344 c -1.488,0 -2.448,-0.696 -2.448,-1.92 v -0.504 c 0,-1.2 0.984,-1.872 3.168,-1.872 h 2.544 v 2.04 c 0,1.272 -1.368,2.256 -3.264,2.256 z m 11.261,1.344 v -8.592 c 0,-1.584 1.44,-2.352 2.952,-2.352 1.824,0 2.664,1.128 2.664,3.336 v 7.608 h 1.92 v -8.592 c 0,-1.584 1.392,-2.352 2.904,-2.352 1.872,0 2.712,1.152 2.712,3.336 v 7.608 h 1.92 v -7.944 c 0,-3 -1.512,-4.728 -4.032,-4.728 -2.112,0 -3.312,1.176 -3.768,2.52 h -0.048 c -0.672,-1.776 -2.16,-2.52 -3.792,-2.52 -1.92,0 -2.784,1.032 -3.336,2.304 h -0.096 v -2.016 h -1.92 V 191.5 Z m 19.993,-15.288 c 0.816,0 1.176,-0.432 1.176,-1.08 v -0.312 c 0,-0.648 -0.36,-1.08 -1.176,-1.08 -0.816,0 -1.176,0.432 -1.176,1.08 v 0.312 c 0,0.648 0.36,1.08 1.176,1.08 z m -0.96,15.288 h 1.92 v -12.384 h -1.92 z m 10.608,0.288 c 2.352,0 3.96,-1.152 4.752,-2.928 l -1.392,-0.936 c -0.672,1.416 -1.8,2.16 -3.36,2.16 -2.28,0 -3.456,-1.56 -3.456,-3.72 v -2.112 c 0,-2.16 1.176,-3.72 3.456,-3.72 1.512,0 2.568,0.744 3.024,2.016 l 1.608,-0.816 c -0.72,-1.704 -2.184,-2.904 -4.632,-2.904 -3.48,0 -5.52,2.52 -5.52,6.48 0,3.96 2.04,6.48 5.52,6.48 z m 11.182,0 c 2.832,0 4.584,-1.464 4.584,-3.864 0,-1.872 -1.056,-3.072 -3.792,-3.48 l -0.96,-0.144 c -1.536,-0.24 -2.376,-0.72 -2.376,-1.92 0,-1.176 0.84,-1.92 2.424,-1.92 1.584,0 2.64,0.744 3.192,1.512 l 1.272,-1.152 c -1.008,-1.248 -2.328,-1.992 -4.32,-1.992 -2.52,0 -4.416,1.2 -4.416,3.648 0,2.304 1.704,3.24 3.984,3.576 l 0.984,0.144 c 1.632,0.24 2.16,0.984 2.16,1.944 0,1.272 -0.96,2.016 -2.592,2.016 -1.56,0 -2.712,-0.696 -3.672,-1.896 l -1.368,1.104 c 1.104,1.464 2.616,2.424 4.896,2.424 z"
     fill="#121619"
     id="path65" />
  <a href="https://qiskit.org/ecosystem/aer/">
  <rect
     x="16.907936"
     y="468.90796"
     width="527.18414"
     height="79.184128"
     fill="#be95ff"
     stroke="#491d8b"
     id="rect67"
     style="stroke-width:0.815871" />
   </a>
  <path
     d="m 52.692001,517.756 h -2.568 v -2.04 c 3.672,-0.504 5.976,-3.48 5.976,-8.592 0,-5.616 -2.784,-8.664 -7.104,-8.664 -4.32,0 -7.104,3.048 -7.104,8.664 0,5.256 2.448,8.28 6.312,8.64 v 1.704 c 0,1.128 0.696,1.968 2.016,1.968 h 2.472 z m -3.696,-3.768 c -2.904,0 -4.944,-2.16 -4.944,-5.472 v -2.784 c 0,-3.312 2.04,-5.472 4.944,-5.472 2.904,0 4.944,2.16 4.944,5.472 v 2.784 c 0,3.312 -2.04,5.472 -4.944,5.472 z m 11.4962,-13.776 c 0.816,0 1.176,-0.432 1.176,-1.08 v -0.312 c 0,-0.648 -0.36,-1.08 -1.176,-1.08 -0.816,0 -1.176,0.432 -1.176,1.08 v 0.312 c 0,0.648 0.36,1.08 1.176,1.08 z m -0.96,15.288 h 1.92 v -12.384 h -1.92 z m 9.72,0.288 c 2.832,0 4.584,-1.464 4.584,-3.864 0,-1.872 -1.056,-3.072 -3.792,-3.48 l -0.96,-0.144 c -1.536,-0.24 -2.376,-0.72 -2.376,-1.92 0,-1.176 0.84,-1.92 2.424,-1.92 1.584,0 2.64,0.744 3.192,1.512 l 1.272,-1.152 c -1.008,-1.248 -2.328,-1.992 -4.32,-1.992 -2.52,0 -4.416,1.2 -4.416,3.648 0,2.304 1.704,3.24 3.984,3.576 l 0.984,0.144 c 1.632,0.24 2.16,0.984 2.16,1.944 0,1.272 -0.96,2.016 -2.592,2.016 -1.56,0 -2.712,-0.696 -3.672,-1.896 l -1.368,1.104 c 1.104,1.464 2.616,2.424 4.896,2.424 z m 7.9753,-0.288 h 1.92 v -4.416 l 1.848,-1.896 4.1045,6.312 h 2.328 l -5.0405,-7.488 4.5845,-4.896 h -2.328 l -3.5045,3.768 -1.896,2.112 h -0.096 V 497.74 h -1.92 z m 13.6165,-15.288 c 0.816,0 1.176,-0.432 1.176,-1.08 v -0.312 c 0,-0.648 -0.36,-1.08 -1.176,-1.08 -0.816,0 -1.176,0.432 -1.176,1.08 v 0.312 c 0,0.648 0.36,1.08 1.176,1.08 z m -0.96,15.288 h 1.92 v -12.384 h -1.92 z m 11.135999,0 v -1.68 h -2.519999 v -9.024 H 101.212 v -1.68 h -2.711999 v -3.432 h -1.728 v 2.304 c 0,0.84 -0.264,1.128 -1.08,1.128 h -1.152 v 1.68 h 2.04 v 8.664 c 0,1.2 0.72,2.04 2.04,2.04 z m 21.742,0 -5.856,-16.752 h -2.568 l -5.856,16.752 h 2.04 l 1.68,-4.944 h 6.768 l 1.68,4.944 z m -4.296,-6.72 h -5.784 l 2.832,-8.16 h 0.12 z m 11.535,7.008 c 2.328,0 4.104,-1.152 4.896,-2.832 l -1.368,-0.984 c -0.648,1.368 -1.848,2.136 -3.408,2.136 -2.304,0 -3.672,-1.608 -3.672,-3.744 v -0.576 h 8.904 v -0.912 c 0,-3.504 -2.04,-6.048 -5.352,-6.048 -3.36,0 -5.568,2.544 -5.568,6.48 0,3.936 2.208,6.48 5.568,6.48 z m 0,-11.352 c 1.968,0 3.288,1.464 3.288,3.648 v 0.264 h -6.84 v -0.168 c 0,-2.16 1.464,-3.744 3.552,-3.744 z m 10.436,11.064 v -8.4 c 0,-1.176 1.248,-2.064 3.312,-2.064 h 1.128 v -1.92 h -0.744 c -2.016,0 -3.144,1.104 -3.576,2.28 h -0.12 v -2.28 h -1.92 V 515.5 Z"
     fill="#121619"
     id="path69" />
  <a href="https://qiskit.org/ecosystem/nature/">
  <rect
     x="16.908012"
     y="50.908012"
     width="255.18398"
     height="79.183975"
     fill="#be95ff"
     stroke="#491d8b"
     id="rect71"
     style="stroke-width:0.816022" />
   </a>
  <path
     d="m 52.692001,99.755999 h -2.568 v -2.04 c 3.672,-0.504 5.976,-3.48 5.976,-8.592 0,-5.616 -2.784,-8.664 -7.104,-8.664 -4.32,0 -7.104,3.048 -7.104,8.664 0,5.256 2.448,8.28 6.312,8.64 v 1.704 c 0,1.128001 0.696,1.968001 2.016,1.968001 h 2.472 z m -3.696,-3.768 c -2.904,0 -4.944,-2.16 -4.944,-5.472 v -2.784 c 0,-3.312 2.04,-5.472 4.944,-5.472 2.904,0 4.944,2.16 4.944,5.472 v 2.784 c 0,3.312 -2.04,5.472 -4.944,5.472 z m 11.4962,-13.776 c 0.816,0 1.176,-0.432 1.176,-1.08 v -0.312 c 0,-0.648 -0.36,-1.08 -1.176,-1.08 -0.816,0 -1.176,0.432 -1.176,1.08 v 0.312 c 0,0.648 0.36,1.08 1.176,1.08 z m -0.96,15.288 h 1.92 v -12.384 h -1.92 z m 9.72,0.288 c 2.832,0 4.584,-1.464 4.584,-3.864 0,-1.872 -1.056,-3.072 -3.792,-3.48 l -0.96,-0.144 c -1.536,-0.24 -2.376,-0.72 -2.376,-1.92 0,-1.176 0.84,-1.92 2.424,-1.92 1.584,0 2.64,0.744 3.192,1.512 l 1.272,-1.152 c -1.008,-1.248 -2.328,-1.992 -4.32,-1.992 -2.52,0 -4.416,1.2 -4.416,3.648 0,2.304 1.704,3.24 3.984,3.576 l 0.984,0.144 c 1.632,0.24 2.16,0.984 2.16,1.944 0,1.272 -0.96,2.016 -2.592,2.016 -1.56,0 -2.712,-0.696 -3.672,-1.896 l -1.368,1.104 c 1.104,1.464 2.616,2.424 4.896,2.424 z m 7.9753,-0.288 h 1.92 v -4.416 l 1.848,-1.896 4.1045,6.312 h 2.328 l -5.0405,-7.488 4.5845,-4.896 h -2.328 l -3.5045,3.768 -1.896,2.112 h -0.096 v -11.256 h -1.92 z m 13.6165,-15.288 c 0.816,0 1.176,-0.432 1.176,-1.08 v -0.312 c 0,-0.648 -0.36,-1.08 -1.176,-1.08 -0.816,0 -1.176,0.432 -1.176,1.08 v 0.312 c 0,0.648 0.36,1.08 1.176,1.08 z m -0.96,15.288 h 1.92 v -12.384 h -1.92 z m 11.135999,0 v -1.68 h -2.519999 v -9.024 H 101.212 v -1.68 h -2.711999 v -3.432 h -1.728 v 2.304 c 0,0.84 -0.264,1.128 -1.08,1.128 h -1.152 v 1.68 h 2.04 v 8.664 c 0,1.2 0.72,2.04 2.04,2.04 z m 19.318,0 h 2.328 v -16.752 h -1.968 v 13.944 h -0.072 l -2.016,-3.72 -6.12,-10.224 h -2.328 v 16.752 h 1.968 v -13.944 h 0.072 l 2.016,3.72 z m 16.68,0 v -1.68 h -1.416 v -6.816 c 0,-2.616 -1.776,-4.176 -4.752,-4.176 -2.232,0 -3.72,1.104 -4.392,2.424 l 1.152,1.08 c 0.672,-1.128 1.656,-1.848 3.144,-1.848 1.968,0 2.928,0.96 2.928,2.712 v 1.224 h -2.448 c -3.6,0 -5.28,1.296 -5.28,3.624 0,2.304 1.536,3.744 4.152,3.744 1.728,0 3.048,-0.792 3.576,-2.304 h 0.12 c 0.144,1.152 0.72,2.016 2.136,2.016 z m -6.6,-1.344 c -1.488,0 -2.448,-0.696 -2.448,-1.92 v -0.504 c 0,-1.2 0.984,-1.872 3.168,-1.872 h 2.544 v 2.04 c 0,1.272 -1.368,2.256 -3.264,2.256 z m 14.477,1.344 v -1.68 h -2.52 v -9.024 h 2.712 v -1.68 h -2.712 v -3.432 h -1.728 v 2.304 c 0,0.84 -0.264,1.128 -1.08,1.128 h -1.152 v 1.68 h 2.04 v 8.664 c 0,1.2 0.72,2.04 2.04,2.04 z m 10.91,0 h 1.92 v -12.384 h -1.92 v 8.568 c 0,1.632 -1.488,2.376 -3,2.376 -1.848,0 -2.832,-1.128 -2.832,-3.336 v -7.608 h -1.92 v 7.944 c 0,3 1.632,4.728 4.176,4.728 2.064,0 3,-1.128 3.48,-2.304 h 0.096 z m 7.928,0 v -8.4 c 0,-1.176 1.248,-2.064 3.312,-2.064 h 1.128 v -1.92 h -0.744 c -2.016,0 -3.144,1.104 -3.576,2.28 h -0.12 v -2.28 h -1.92 v 12.384 z m 11.432,0.288 c 2.328,0 4.104,-1.152 4.896,-2.832 l -1.368,-0.984 c -0.648,1.368 -1.848,2.136 -3.408,2.136 -2.304,0 -3.672,-1.608 -3.672,-3.744 v -0.576 h 8.904 v -0.912 c 0,-3.504 -2.04,-6.048 -5.352,-6.048 -3.36,0 -5.568,2.544 -5.568,6.48 0,3.936 2.208,6.48 5.568,6.48 z m 0,-11.352 c 1.968,0 3.288,1.464 3.288,3.648 v 0.264 h -6.84 v -0.168 c 0,-2.16 1.464,-3.744 3.552,-3.744 z"
     fill="#121619"
     id="path73" />
  <a href="https://qiskit.org/ecosystem/metal/"><rect
     x="592.90802"
     y="50.908012"
     width="255.18398"
     height="79.183975"
     fill="#be95ff"
     stroke="#491d8b"
     id="rect75"
     style="stroke-width:0.816022" />
   </a>
  <path
     d="m 628.692,99.755999 h -2.568 v -2.04 c 3.672,-0.504 5.976,-3.48 5.976,-8.592 0,-5.616 -2.784,-8.664 -7.104,-8.664 -4.32,0 -7.104,3.048 -7.104,8.664 0,5.256 2.448,8.28 6.312,8.64 v 1.704 c 0,1.128001 0.696,1.968001 2.016,1.968001 h 2.472 z m -3.696,-3.768 c -2.904,0 -4.944,-2.16 -4.944,-5.472 v -2.784 c 0,-3.312 2.04,-5.472 4.944,-5.472 2.904,0 4.944,2.16 4.944,5.472 v 2.784 c 0,3.312 -2.04,5.472 -4.944,5.472 z m 11.496,-13.776 c 0.816,0 1.176,-0.432 1.176,-1.08 v -0.312 c 0,-0.648 -0.36,-1.08 -1.176,-1.08 -0.816,0 -1.176,0.432 -1.176,1.08 v 0.312 c 0,0.648 0.36,1.08 1.176,1.08 z m -0.96,15.288 h 1.92 v -12.384 h -1.92 z m 9.72,0.288 c 2.832,0 4.584,-1.464 4.584,-3.864 0,-1.872 -1.056,-3.072 -3.792,-3.48 l -0.96,-0.144 c -1.536,-0.24 -2.376,-0.72 -2.376,-1.92 0,-1.176 0.84,-1.92 2.424,-1.92 1.584,0 2.64,0.744 3.192,1.512 l 1.272,-1.152 c -1.008,-1.248 -2.328,-1.992 -4.32,-1.992 -2.52,0 -4.416,1.2 -4.416,3.648 0,2.304 1.704,3.24 3.984,3.576 l 0.984,0.144 c 1.632,0.24 2.16,0.984 2.16,1.944 0,1.272 -0.96,2.016 -2.592,2.016 -1.56,0 -2.712,-0.696 -3.672,-1.896 l -1.368,1.104 c 1.104,1.464 2.616,2.424 4.896,2.424 z m 7.976,-0.288 h 1.92 v -4.416 l 1.848,-1.896 4.104,6.312 h 2.328 l -5.04,-7.488 4.584,-4.896 h -2.328 l -3.504,3.768 -1.896,2.112 h -0.096 v -11.256 h -1.92 z m 13.616,-15.288 c 0.816,0 1.176,-0.432 1.176,-1.08 v -0.312 c 0,-0.648 -0.36,-1.08 -1.176,-1.08 -0.816,0 -1.176,0.432 -1.176,1.08 v 0.312 c 0,0.648 0.36,1.08 1.176,1.08 z m -0.96,15.288 h 1.92 v -12.384 h -1.92 z m 11.136,0 v -1.68 h -2.52 v -9.024 h 2.712 v -1.68 H 674.5 v -3.432 h -1.728 v 2.304 c 0,0.84 -0.264,1.128 -1.08,1.128 h -1.152 v 1.68 h 2.04 v 8.664 c 0,1.2 0.72,2.04 2.04,2.04 z m 9.142,0 h 1.968 v -14.112 h 0.12 l 1.416,2.808 4.008,7.296 4.008,-7.296 1.416,-2.808 h 0.12 v 14.112 h 1.968 v -16.752 h -2.592 l -4.824,9.024 h -0.12 l -4.8,-9.024 h -2.688 z m 23.94,0.288 c 2.328,0 4.104,-1.152 4.896,-2.832 l -1.368,-0.984 c -0.648,1.368 -1.848,2.136 -3.408,2.136 -2.304,0 -3.672,-1.608 -3.672,-3.744 v -0.576 h 8.904 v -0.912 c 0,-3.504 -2.04,-6.048 -5.352,-6.048 -3.36,0 -5.568,2.544 -5.568,6.48 0,3.936 2.208,6.48 5.568,6.48 z m 0,-11.352 c 1.968,0 3.288,1.464 3.288,3.648 v 0.264 h -6.84 v -0.168 c 0,-2.16 1.464,-3.744 3.552,-3.744 z m 13.652,11.064 v -1.68 h -2.52 v -9.024 h 2.712 v -1.68 h -2.712 v -3.432 h -1.728 v 2.304 c 0,0.84 -0.264,1.128 -1.08,1.128 h -1.152 v 1.68 h 2.04 v 8.664 c 0,1.2 0.72,2.04 2.04,2.04 z m 13.358,0 v -1.68 h -1.416 v -6.816 c 0,-2.616 -1.776,-4.176 -4.752,-4.176 -2.232,0 -3.72,1.104 -4.392,2.424 l 1.152,1.08 c 0.672,-1.128 1.656,-1.848 3.144,-1.848 1.968,0 2.928,0.96 2.928,2.712 v 1.224 h -2.448 c -3.6,0 -5.28,1.296 -5.28,3.624 0,2.304 1.536,3.744 4.152,3.744 1.728,0 3.048,-0.792 3.576,-2.304 h 0.12 c 0.144,1.152 0.72,2.016 2.136,2.016 z m -6.6,-1.344 c -1.488,0 -2.448,-0.696 -2.448,-1.92 v -0.504 c 0,-1.2 0.984,-1.872 3.168,-1.872 h 2.544 v 2.04 c 0,1.272 -1.368,2.256 -3.264,2.256 z m 13.085,1.344 v -1.68 h -1.824 v -16.08 h -1.92 v 15.768 c 0,1.152 0.72,1.992 2.04,1.992 z"
     fill="#121619"
     id="path77" />
  <a href="https://qiskit.org/ecosystem/finance/"><rect
     x="288.90802"
     y="50.908012"
     width="255.18398"
     height="79.183975"
     fill="#be95ff"
     stroke="#491d8b"
     id="rect79"
     style="stroke-width:0.816022" />
     </a>
  <path
     d="m 324.692,99.755999 h -2.568 v -2.04 c 3.672,-0.504 5.976,-3.48 5.976,-8.592 0,-5.616 -2.784,-8.664 -7.104,-8.664 -4.32,0 -7.104,3.048 -7.104,8.664 0,5.256 2.448,8.28 6.312,8.64 v 1.704 c 0,1.128001 0.696,1.968001 2.016,1.968001 h 2.472 z m -3.696,-3.768 c -2.904,0 -4.944,-2.16 -4.944,-5.472 v -2.784 c 0,-3.312 2.04,-5.472 4.944,-5.472 2.904,0 4.944,2.16 4.944,5.472 v 2.784 c 0,3.312 -2.04,5.472 -4.944,5.472 z m 11.496,-13.776 c 0.816,0 1.176,-0.432 1.176,-1.08 v -0.312 c 0,-0.648 -0.36,-1.08 -1.176,-1.08 -0.816,0 -1.176,0.432 -1.176,1.08 v 0.312 c 0,0.648 0.36,1.08 1.176,1.08 z m -0.96,15.288 h 1.92 v -12.384 h -1.92 z m 9.72,0.288 c 2.832,0 4.584,-1.464 4.584,-3.864 0,-1.872 -1.056,-3.072 -3.792,-3.48 l -0.96,-0.144 c -1.536,-0.24 -2.376,-0.72 -2.376,-1.92 0,-1.176 0.84,-1.92 2.424,-1.92 1.584,0 2.64,0.744 3.192,1.512 l 1.272,-1.152 c -1.008,-1.248 -2.328,-1.992 -4.32,-1.992 -2.52,0 -4.416,1.2 -4.416,3.648 0,2.304 1.704,3.24 3.984,3.576 l 0.984,0.144 c 1.632,0.24 2.16,0.984 2.16,1.944 0,1.272 -0.96,2.016 -2.592,2.016 -1.56,0 -2.712,-0.696 -3.672,-1.896 l -1.368,1.104 c 1.104,1.464 2.616,2.424 4.896,2.424 z m 7.976,-0.288 h 1.92 v -4.416 l 1.848,-1.896 4.104,6.312 h 2.328 l -5.04,-7.488 4.584,-4.896 h -2.328 l -3.504,3.768 -1.896,2.112 h -0.096 v -11.256 h -1.92 z m 13.616,-15.288 c 0.816,0 1.176,-0.432 1.176,-1.08 v -0.312 c 0,-0.648 -0.36,-1.08 -1.176,-1.08 -0.816,0 -1.176,0.432 -1.176,1.08 v 0.312 c 0,0.648 0.36,1.08 1.176,1.08 z m -0.96,15.288 h 1.92 v -12.384 h -1.92 z m 11.136,0 v -1.68 h -2.52 v -9.024 h 2.712 v -1.68 H 370.5 v -3.432 h -1.728 v 2.304 c 0,0.84 -0.264,1.128 -1.08,1.128 h -1.152 v 1.68 h 2.04 v 8.664 c 0,1.2 0.72,2.04 2.04,2.04 z m 11.158,0 v -7.584 h 7.272 v -1.776 h -7.272 v -5.616 h 7.968 v -1.776 h -9.984 v 16.752 z m 12.158,-15.288 c 0.816,0 1.176,-0.432 1.176,-1.08 v -0.312 c 0,-0.648 -0.36,-1.08 -1.176,-1.08 -0.816,0 -1.176,0.432 -1.176,1.08 v 0.312 c 0,0.648 0.36,1.08 1.176,1.08 z m -0.96,15.288 h 1.92 v -12.384 h -1.92 z m 7.92,0 v -8.592 c 0,-1.584 1.488,-2.352 3.024,-2.352 1.848,0 2.808,1.128 2.808,3.336 v 7.608 h 1.92 v -7.944 c 0,-3 -1.608,-4.728 -4.152,-4.728 -1.848,0 -2.904,0.912 -3.504,2.304 h -0.096 v -2.016 h -1.92 v 12.384 z m 21.801,0 v -1.68 h -1.416 v -6.816 c 0,-2.616 -1.776,-4.176 -4.752,-4.176 -2.232,0 -3.72,1.104 -4.392,2.424 l 1.152,1.08 c 0.672,-1.128 1.656,-1.848 3.144,-1.848 1.968,0 2.928,0.96 2.928,2.712 v 1.224 h -2.448 c -3.6,0 -5.28,1.296 -5.28,3.624 0,2.304 1.536,3.744 4.152,3.744 1.728,0 3.048,-0.792 3.576,-2.304 h 0.12 c 0.144,1.152 0.72,2.016 2.136,2.016 z m -6.6,-1.344 c -1.488,0 -2.448,-0.696 -2.448,-1.92 v -0.504 c 0,-1.2 0.984,-1.872 3.168,-1.872 h 2.544 v 2.04 c 0,1.272 -1.368,2.256 -3.264,2.256 z m 11.26,1.344 v -8.592 c 0,-1.584 1.488,-2.352 3.024,-2.352 1.848,0 2.808,1.128 2.808,3.336 v 7.608 h 1.92 v -7.944 c 0,-3 -1.608,-4.728 -4.152,-4.728 -1.848,0 -2.904,0.912 -3.504,2.304 h -0.096 v -2.016 h -1.92 v 12.384 z m 16.329,0.288 c 2.352,0 3.96,-1.152 4.752,-2.928 l -1.392,-0.936 c -0.672,1.416 -1.8,2.16 -3.36,2.16 -2.28,0 -3.456,-1.56 -3.456,-3.72 v -2.112 c 0,-2.16 1.176,-3.72 3.456,-3.72 1.512,0 2.568,0.744 3.024,2.016 l 1.608,-0.816 c -0.72,-1.704 -2.184,-2.904 -4.632,-2.904 -3.481,0 -5.52,2.52 -5.52,6.48 0,3.96 2.039,6.48 5.52,6.48 z m 11.977,0 c 2.328,0 4.104,-1.152 4.896,-2.832 l -1.368,-0.984 c -0.648,1.368 -1.848,2.136 -3.408,2.136 -2.304,0 -3.672,-1.608 -3.672,-3.744 v -0.576 h 8.904 v -0.912 c 0,-3.504 -2.04,-6.048 -5.352,-6.048 -3.36,0 -5.568,2.544 -5.568,6.48 0,3.936 2.208,6.48 5.568,6.48 z m 0,-11.352 c 1.968,0 3.288,1.464 3.288,3.648 v 0.264 h -6.84 v -0.168 c 0,-2.16 1.464,-3.744 3.552,-3.744 z"
     fill="#121619"
     id="path81" />
  <a href="https://qiskit.org/ecosystem/ibm-runtime/">
  <rect
     x="592.90796"
     y="468.90796"
     width="119.04158"
     height="79.184128"
     fill="#be95ff"
     stroke="#491d8b"
     id="rect83"
     style="stroke-width:0.815871" />
     </a>
  <path
     d="m 624.66,515.5 v -1.68 h -2.352 v -13.392 h 2.352 v -1.68 h -6.72 v 1.68 h 2.352 v 13.392 h -2.352 v 1.68 z m 3.681,0 h 7.608 c 2.472,0 4.32,-2.088 4.32,-4.848 0,-2.784 -2.088,-3.816 -3.288,-3.888 v -0.144 c 1.104,-0.168 2.712,-1.056 2.712,-3.552 0,-2.616 -1.704,-4.32 -4.464,-4.32 h -6.888 z m 2.016,-7.776 h 4.968 c 1.728,0 2.784,0.912 2.784,2.592 v 0.816 c 0,1.68 -1.056,2.592 -2.784,2.592 h -4.968 z m 0,-7.2 h 4.632 c 1.584,0 2.544,0.84 2.544,2.328 v 0.816 c 0,1.488 -0.96,2.328 -2.544,2.328 h -4.632 z m 13.664,14.976 h 1.968 v -14.112 h 0.12 l 1.416,2.808 4.008,7.296 4.008,-7.296 1.416,-2.808 h 0.12 V 515.5 h 1.968 v -16.752 h -2.592 l -4.824,9.024 h -0.12 l -4.8,-9.024 h -2.688 z"
     fill="#121619"
     id="path85" />
  <a href="https://qiskit.org/ecosystem/aqt/"><rect
     x="728.95544"
     y="468.90796"
     width="119.04158"
     height="79.184128"
     fill="#be95ff"
     stroke="#491d8b"
     id="rect87"
     style="stroke-width:0.815871" />
   </a>
  <path
     d="m 767.332,515.5 -5.856,-16.752 h -2.568 l -5.856,16.752 h 2.04 l 1.68,-4.944 h 6.768 l 1.68,4.944 z m -4.296,-6.72 h -5.784 l 2.832,-8.16 h 0.12 z m 16.679,8.976 h -2.568 v -2.04 c 3.672,-0.504 5.976,-3.48 5.976,-8.592 0,-5.616 -2.784,-8.664 -7.104,-8.664 -4.32,0 -7.104,3.048 -7.104,8.664 0,5.256 2.448,8.28 6.312,8.64 v 1.704 c 0,1.128 0.696,1.968 2.016,1.968 h 2.472 z m -3.696,-3.768 c -2.904,0 -4.944,-2.16 -4.944,-5.472 v -2.784 c 0,-3.312 2.04,-5.472 4.944,-5.472 2.904,0 4.944,2.16 4.944,5.472 v 2.784 c 0,3.312 -2.04,5.472 -4.944,5.472 z m 21.228,-13.464 v -1.776 h -12.672 v 1.776 h 5.328 V 515.5 h 2.016 v -14.976 z"
     fill="#121619"
     id="path89" />
  <a href="https://qiskit.org/ecosystem/ionq/"><rect
     x="865.00299"
     y="468.90796"
     width="119.04158"
     height="79.184128"
     fill="#be95ff"
     stroke="#491d8b"
     id="rect91"
     style="stroke-width:0.815871" />
   </a>
  <path
     d="m 896.66,515.5 v -1.68 h -2.352 v -13.392 h 2.352 v -1.68 h -6.72 v 1.68 h 2.352 v 13.392 h -2.352 v 1.68 z m 8.052,0.288 c 3.312,0 5.592,-2.544 5.592,-6.48 0,-3.936 -2.28,-6.48 -5.592,-6.48 -3.312,0 -5.592,2.544 -5.592,6.48 0,3.936 2.28,6.48 5.592,6.48 z m 0,-1.704 c -2.064,0 -3.528,-1.272 -3.528,-3.888 v -1.776 c 0,-2.616 1.464,-3.888 3.528,-3.888 2.064,0 3.528,1.272 3.528,3.888 v 1.776 c 0,2.616 -1.464,3.888 -3.528,3.888 z m 10.67,1.416 v -8.592 c 0,-1.584 1.488,-2.352 3.024,-2.352 1.848,0 2.808,1.128 2.808,3.336 v 7.608 h 1.92 v -7.944 c 0,-3 -1.608,-4.728 -4.152,-4.728 -1.848,0 -2.904,0.912 -3.504,2.304 h -0.096 v -2.016 h -1.92 V 515.5 Z m 21.873,2.256 h -2.568 v -2.04 c 3.672,-0.504 5.976,-3.48 5.976,-8.592 0,-5.616 -2.784,-8.664 -7.104,-8.664 -4.32,0 -7.104,3.048 -7.104,8.664 0,5.256 2.448,8.28 6.312,8.64 v 1.704 c 0,1.128 0.696,1.968 2.016,1.968 h 2.472 z m -3.696,-3.768 c -2.904,0 -4.944,-2.16 -4.944,-5.472 v -2.784 c 0,-3.312 2.04,-5.472 4.944,-5.472 2.904,0 4.944,2.16 4.944,5.472 v 2.784 c 0,3.312 -2.04,5.472 -4.944,5.472 z"
     fill="#121619"
     id="path93" />
  <a href="https://qiskit.org/providers/"><rect
     x="1001.0505"
     y="468.90796"
     width="119.04158"
     height="79.184128"
     fill="#be95ff"
     stroke="#491d8b"
     id="rect95"
     style="stroke-width:0.815871" />
   </a>
  <path
     d="m 1027.76,515.788 c 1.01,0 1.47,-0.576 1.47,-1.392 v -0.312 c 0,-0.816 -0.46,-1.392 -1.47,-1.392 -1,0 -1.46,0.576 -1.46,1.392 v 0.312 c 0,0.816 0.46,1.392 1.46,1.392 z m 6.54,0 c 1.01,0 1.47,-0.576 1.47,-1.392 v -0.312 c 0,-0.816 -0.46,-1.392 -1.47,-1.392 -1,0 -1.46,0.576 -1.46,1.392 v 0.312 c 0,0.816 0.46,1.392 1.46,1.392 z m 6.54,0 c 1.01,0 1.47,-0.576 1.47,-1.392 v -0.312 c 0,-0.816 -0.46,-1.392 -1.47,-1.392 -1.01,0 -1.46,0.576 -1.46,1.392 v 0.312 c 0,0.816 0.45,1.392 1.46,1.392 z"
     fill="#121619"
     id="path97" />
  <a href="https://qiskit.org/documentation/apidoc/terra.html">
   <rect
     x="16.907898"
     y="306.9079"
     width="1103.1842"
     height="79.184204"
     fill="#be95ff"
     stroke="#491d8b"
     id="rect99"
     style="stroke-width:0.815797" />
   </a>
  <path
     d="m 52.692001,355.756 h -2.568 v -2.04 c 3.672,-0.504 5.976,-3.48 5.976,-8.592 0,-5.616 -2.784,-8.664 -7.104,-8.664 -4.32,0 -7.104,3.048 -7.104,8.664 0,5.256 2.448,8.28 6.312,8.64 v 1.704 c 0,1.128 0.696,1.968 2.016,1.968 h 2.472 z m -3.696,-3.768 c -2.904,0 -4.944,-2.16 -4.944,-5.472 v -2.784 c 0,-3.312 2.04,-5.472 4.944,-5.472 2.904,0 4.944,2.16 4.944,5.472 v 2.784 c 0,3.312 -2.04,5.472 -4.944,5.472 z m 11.4962,-13.776 c 0.816,0 1.176,-0.432 1.176,-1.08 v -0.312 c 0,-0.648 -0.36,-1.08 -1.176,-1.08 -0.816,0 -1.176,0.432 -1.176,1.08 v 0.312 c 0,0.648 0.36,1.08 1.176,1.08 z m -0.96,15.288 h 1.92 v -12.384 h -1.92 z m 9.72,0.288 c 2.832,0 4.584,-1.464 4.584,-3.864 0,-1.872 -1.056,-3.072 -3.792,-3.48 l -0.96,-0.144 c -1.536,-0.24 -2.376,-0.72 -2.376,-1.92 0,-1.176 0.84,-1.92 2.424,-1.92 1.584,0 2.64,0.744 3.192,1.512 l 1.272,-1.152 c -1.008,-1.248 -2.328,-1.992 -4.32,-1.992 -2.52,0 -4.416,1.2 -4.416,3.648 0,2.304 1.704,3.24 3.984,3.576 l 0.984,0.144 c 1.632,0.24 2.16,0.984 2.16,1.944 0,1.272 -0.96,2.016 -2.592,2.016 -1.56,0 -2.712,-0.696 -3.672,-1.896 l -1.368,1.104 c 1.104,1.464 2.616,2.424 4.896,2.424 z m 7.9753,-0.288 h 1.92 v -4.416 l 1.848,-1.896 4.1045,6.312 h 2.328 l -5.0405,-7.488 4.5845,-4.896 h -2.328 l -3.5045,3.768 -1.896,2.112 h -0.096 V 335.74 h -1.92 z m 13.6165,-15.288 c 0.816,0 1.176,-0.432 1.176,-1.08 v -0.312 c 0,-0.648 -0.36,-1.08 -1.176,-1.08 -0.816,0 -1.176,0.432 -1.176,1.08 v 0.312 c 0,0.648 0.36,1.08 1.176,1.08 z m -0.96,15.288 h 1.92 v -12.384 h -1.92 z m 11.135999,0 v -1.68 h -2.519999 v -9.024 H 101.212 v -1.68 h -2.711999 v -3.432 h -1.728 v 2.304 c 0,0.84 -0.264,1.128 -1.08,1.128 h -1.152 v 1.68 h 2.04 v 8.664 c 0,1.2 0.72,2.04 2.04,2.04 z m 20.11,-14.976 v -1.776 h -12.672 v 1.776 h 5.328 V 353.5 h 2.016 v -14.976 z m 5.66,15.264 c 2.328,0 4.104,-1.152 4.896,-2.832 l -1.368,-0.984 c -0.648,1.368 -1.848,2.136 -3.408,2.136 -2.304,0 -3.672,-1.608 -3.672,-3.744 v -0.576 h 8.904 v -0.912 c 0,-3.504 -2.04,-6.048 -5.352,-6.048 -3.36,0 -5.568,2.544 -5.568,6.48 0,3.936 2.208,6.48 5.568,6.48 z m 0,-11.352 c 1.968,0 3.288,1.464 3.288,3.648 v 0.264 h -6.84 v -0.168 c 0,-2.16 1.464,-3.744 3.552,-3.744 z m 10.436,11.064 v -8.4 c 0,-1.176 1.248,-2.064 3.312,-2.064 h 1.128 v -1.92 h -0.744 c -2.016,0 -3.144,1.104 -3.576,2.28 h -0.12 v -2.28 h -1.92 V 353.5 Z m 8.812,0 v -8.4 c 0,-1.176 1.248,-2.064 3.312,-2.064 h 1.128 v -1.92 h -0.744 c -2.016,0 -3.144,1.104 -3.576,2.28 h -0.12 v -2.28 h -1.92 V 353.5 Z m 16.879,0 v -1.68 h -1.416 v -6.816 c 0,-2.616 -1.776,-4.176 -4.752,-4.176 -2.232,0 -3.72,1.104 -4.392,2.424 l 1.152,1.08 c 0.672,-1.128 1.656,-1.848 3.144,-1.848 1.968,0 2.928,0.96 2.928,2.712 v 1.224 h -2.448 c -3.6,0 -5.28,1.296 -5.28,3.624 0,2.304 1.536,3.744 4.152,3.744 1.728,0 3.048,-0.792 3.576,-2.304 h 0.12 c 0.144,1.152 0.72,2.016 2.136,2.016 z m -6.6,-1.344 c -1.488,0 -2.448,-0.696 -2.448,-1.92 v -0.504 c 0,-1.2 0.984,-1.872 3.168,-1.872 h 2.544 v 2.04 c 0,1.272 -1.368,2.256 -3.264,2.256 z"
     fill="#121619"
     id="path101" />
  <a href="https://qiskit.org/ecosystem/machine-learning/">
  <rect
     x="288.90802"
     y="144.90802"
     width="255.18399"
     height="79.183975"
     fill="#be95ff"
     stroke="#491d8b"
     id="rect103"
     style="stroke-width:0.816022" />
   </a>
  <path
     d="m 324.692,181.756 h -2.568 v -2.04 c 3.672,-0.504 5.976,-3.48 5.976,-8.592 0,-5.616 -2.784,-8.664 -7.104,-8.664 -4.32,0 -7.104,3.048 -7.104,8.664 0,5.256 2.448,8.28 6.312,8.64 v 1.704 c 0,1.128 0.696,1.968 2.016,1.968 h 2.472 z m -3.696,-3.768 c -2.904,0 -4.944,-2.16 -4.944,-5.472 v -2.784 c 0,-3.312 2.04,-5.472 4.944,-5.472 2.904,0 4.944,2.16 4.944,5.472 v 2.784 c 0,3.312 -2.04,5.472 -4.944,5.472 z m 11.496,-13.776 c 0.816,0 1.176,-0.432 1.176,-1.08 v -0.312 c 0,-0.648 -0.36,-1.08 -1.176,-1.08 -0.816,0 -1.176,0.432 -1.176,1.08 v 0.312 c 0,0.648 0.36,1.08 1.176,1.08 z m -0.96,15.288 h 1.92 v -12.384 h -1.92 z m 9.72,0.288 c 2.832,0 4.584,-1.464 4.584,-3.864 0,-1.872 -1.056,-3.072 -3.792,-3.48 l -0.96,-0.144 c -1.536,-0.24 -2.376,-0.72 -2.376,-1.92 0,-1.176 0.84,-1.92 2.424,-1.92 1.584,0 2.64,0.744 3.192,1.512 l 1.272,-1.152 c -1.008,-1.248 -2.328,-1.992 -4.32,-1.992 -2.52,0 -4.416,1.2 -4.416,3.648 0,2.304 1.704,3.24 3.984,3.576 l 0.984,0.144 c 1.632,0.24 2.16,0.984 2.16,1.944 0,1.272 -0.96,2.016 -2.592,2.016 -1.56,0 -2.712,-0.696 -3.672,-1.896 l -1.368,1.104 c 1.104,1.464 2.616,2.424 4.896,2.424 z m 7.976,-0.288 h 1.92 v -4.416 l 1.848,-1.896 4.104,6.312 h 2.328 l -5.04,-7.488 4.584,-4.896 h -2.328 l -3.504,3.768 -1.896,2.112 h -0.096 V 161.74 h -1.92 z m 13.616,-15.288 c 0.816,0 1.176,-0.432 1.176,-1.08 v -0.312 c 0,-0.648 -0.36,-1.08 -1.176,-1.08 -0.816,0 -1.176,0.432 -1.176,1.08 v 0.312 c 0,0.648 0.36,1.08 1.176,1.08 z m -0.96,15.288 h 1.92 v -12.384 h -1.92 z m 11.136,0 v -1.68 h -2.52 v -9.024 h 2.712 v -1.68 H 370.5 v -3.432 h -1.728 v 2.304 c 0,0.84 -0.264,1.128 -1.08,1.128 h -1.152 v 1.68 h 2.04 v 8.664 c 0,1.2 0.72,2.04 2.04,2.04 z m 9.142,0 h 1.968 v -14.112 h 0.12 l 1.416,2.808 4.008,7.296 4.008,-7.296 1.416,-2.808 h 0.12 V 179.5 h 1.968 v -16.752 h -2.592 l -4.824,9.024 h -0.12 l -4.8,-9.024 h -2.688 z m 29.364,0 v -1.68 h -1.416 v -6.816 c 0,-2.616 -1.776,-4.176 -4.752,-4.176 -2.232,0 -3.72,1.104 -4.392,2.424 l 1.152,1.08 c 0.672,-1.128 1.656,-1.848 3.144,-1.848 1.968,0 2.928,0.96 2.928,2.712 v 1.224 h -2.448 c -3.6,0 -5.28,1.296 -5.28,3.624 0,2.304 1.536,3.744 4.152,3.744 1.728,0 3.048,-0.792 3.576,-2.304 h 0.12 c 0.144,1.152 0.72,2.016 2.136,2.016 z m -6.6,-1.344 c -1.488,0 -2.448,-0.696 -2.448,-1.92 v -0.504 c 0,-1.2 0.984,-1.872 3.168,-1.872 h 2.544 v 2.04 c 0,1.272 -1.368,2.256 -3.264,2.256 z m 13.949,1.632 c 2.352,0 3.96,-1.152 4.752,-2.928 l -1.392,-0.936 c -0.672,1.416 -1.8,2.16 -3.36,2.16 -2.28,0 -3.456,-1.56 -3.456,-3.72 v -2.112 c 0,-2.16 1.176,-3.72 3.456,-3.72 1.512,0 2.568,0.744 3.024,2.016 l 1.608,-0.816 c -0.72,-1.704 -2.184,-2.904 -4.632,-2.904 -3.48,0 -5.52,2.52 -5.52,6.48 0,3.96 2.04,6.48 5.52,6.48 z m 7.462,-0.288 h 1.92 v -8.592 c 0,-1.584 1.488,-2.352 3.024,-2.352 1.848,0 2.808,1.128 2.808,3.336 v 7.608 h 1.92 v -7.944 c 0,-3 -1.608,-4.728 -4.152,-4.728 -1.848,0 -2.904,0.912 -3.504,2.304 h -0.096 v -7.392 h -1.92 z m 14.601,-15.288 c 0.816,0 1.176,-0.432 1.176,-1.08 v -0.312 c 0,-0.648 -0.36,-1.08 -1.176,-1.08 -0.816,0 -1.176,0.432 -1.176,1.08 v 0.312 c 0,0.648 0.36,1.08 1.176,1.08 z m -0.96,15.288 h 1.92 v -12.384 h -1.92 z m 7.92,0 v -8.592 c 0,-1.584 1.488,-2.352 3.024,-2.352 1.848,0 2.808,1.128 2.808,3.336 v 7.608 h 1.92 v -7.944 c 0,-3 -1.608,-4.728 -4.152,-4.728 -1.848,0 -2.904,0.912 -3.504,2.304 h -0.096 v -2.016 h -1.92 V 179.5 Z m 16.376,0.288 c 2.328,0 4.104,-1.152 4.896,-2.832 l -1.368,-0.984 c -0.648,1.368 -1.848,2.136 -3.408,2.136 -2.304,0 -3.672,-1.608 -3.672,-3.744 v -0.576 h 8.904 v -0.912 c 0,-3.504 -2.04,-6.048 -5.352,-6.048 -3.36,0 -5.568,2.544 -5.568,6.48 0,3.936 2.208,6.48 5.568,6.48 z m 0,-11.352 c 1.968,0 3.288,1.464 3.288,3.648 v 0.264 h -6.84 v -0.168 c 0,-2.16 1.464,-3.744 3.552,-3.744 z M 323.876,207.5 v -1.776 h -7.128 v -14.976 h -2.016 V 207.5 Z m 7.109,0.288 c 2.328,0 4.104,-1.152 4.896,-2.832 l -1.368,-0.984 c -0.648,1.368 -1.848,2.136 -3.408,2.136 -2.304,0 -3.672,-1.608 -3.672,-3.744 v -0.576 h 8.904 v -0.912 c 0,-3.504 -2.04,-6.048 -5.352,-6.048 -3.36,0 -5.568,2.544 -5.568,6.48 0,3.936 2.208,6.48 5.568,6.48 z m 0,-11.352 c 1.968,0 3.288,1.464 3.288,3.648 v 0.264 h -6.84 v -0.168 c 0,-2.16 1.464,-3.744 3.552,-3.744 z m 18.596,11.064 v -1.68 h -1.416 v -6.816 c 0,-2.616 -1.776,-4.176 -4.752,-4.176 -2.232,0 -3.72,1.104 -4.392,2.424 l 1.152,1.08 c 0.672,-1.128 1.656,-1.848 3.144,-1.848 1.968,0 2.928,0.96 2.928,2.712 v 1.224 h -2.448 c -3.6,0 -5.28,1.296 -5.28,3.624 0,2.304 1.536,3.744 4.152,3.744 1.728,0 3.048,-0.792 3.576,-2.304 h 0.12 c 0.144,1.152 0.72,2.016 2.136,2.016 z m -6.6,-1.344 c -1.488,0 -2.448,-0.696 -2.448,-1.92 v -0.504 c 0,-1.2 0.984,-1.872 3.168,-1.872 h 2.544 v 2.04 c 0,1.272 -1.368,2.256 -3.264,2.256 z m 11.26,1.344 v -8.4 c 0,-1.176 1.248,-2.064 3.312,-2.064 h 1.128 v -1.92 h -0.744 c -2.016,0 -3.144,1.104 -3.576,2.28 h -0.12 v -2.28 h -1.92 V 207.5 Z m 8.813,0 v -8.592 c 0,-1.584 1.488,-2.352 3.024,-2.352 1.848,0 2.808,1.128 2.808,3.336 v 7.608 h 1.92 v -7.944 c 0,-3 -1.608,-4.728 -4.152,-4.728 -1.848,0 -2.904,0.912 -3.504,2.304 h -0.096 v -2.016 h -1.92 V 207.5 Z m 12.68,-15.288 c 0.816,0 1.176,-0.432 1.176,-1.08 v -0.312 c 0,-0.648 -0.36,-1.08 -1.176,-1.08 -0.816,0 -1.176,0.432 -1.176,1.08 v 0.312 c 0,0.648 0.36,1.08 1.176,1.08 z m -0.96,15.288 h 1.92 v -12.384 h -1.92 z m 7.92,0 v -8.592 c 0,-1.584 1.488,-2.352 3.024,-2.352 1.848,0 2.808,1.128 2.808,3.336 v 7.608 h 1.92 v -7.944 c 0,-3 -1.608,-4.728 -4.152,-4.728 -1.848,0 -2.904,0.912 -3.504,2.304 h -0.096 v -2.016 h -1.92 V 207.5 Z m 22.161,1.368 c 0,-2.04 -1.32,-3.288 -4.392,-3.288 h -2.64 c -1.128,0 -1.896,-0.192 -1.896,-0.936 0,-0.768 0.816,-1.176 1.632,-1.392 0.36,0.072 0.792,0.12 1.2,0.12 2.832,0 4.68,-1.752 4.68,-4.272 0,-1.32 -0.528,-2.424 -1.416,-3.192 v -0.792 h 2.352 v -1.68 h -1.848 c -1.032,0 -1.44,0.696 -1.44,1.656 v 0.216 c -0.672,-0.312 -1.464,-0.48 -2.352,-0.48 -2.808,0 -4.656,1.752 -4.656,4.272 0,1.728 0.864,3.096 2.328,3.792 v 0.096 c -1.248,0.312 -2.136,0.912 -2.136,2.16 0,0.84 0.408,1.392 1.104,1.728 v 0.264 c -1.224,0.336 -1.968,1.056 -1.968,2.4 0,1.944 1.584,3.048 5.448,3.048 3.984,0 6,-1.176 6,-3.72 z m -1.8,0.144 c 0,1.344 -1.248,2.016 -3.384,2.016 h -1.776 c -1.944,0 -2.688,-0.888 -2.688,-1.968 0,-0.768 0.36,-1.32 1.152,-1.68 h 4.128 c 1.92,0 2.568,0.648 2.568,1.632 z m -4.296,-7.176 c -1.632,0 -2.664,-0.768 -2.664,-2.4 v -0.672 c 0,-1.632 1.032,-2.4 2.664,-2.4 1.632,0 2.664,0.768 2.664,2.4 v 0.672 c 0,1.632 -1.032,2.4 -2.664,2.4 z"
     fill="#121619"
     id="path105" />
  <a href="https://qiskit.org/ecosystem/experiments/"><rect
     x="864.90802"
     y="144.908"
     width="255.18398"
     height="79.183975"
     fill="#be95ff"
     stroke="#491d8b"
     id="rect107"
     style="stroke-width:0.816022" />
   </a>
  <path
     d="m 900.692,193.756 h -2.568 v -2.04 c 3.672,-0.504 5.976,-3.48 5.976,-8.592 0,-5.616 -2.784,-8.664 -7.104,-8.664 -4.32,0 -7.104,3.048 -7.104,8.664 0,5.256 2.448,8.28 6.312,8.64 v 1.704 c 0,1.128 0.696,1.968 2.016,1.968 h 2.472 z m -3.696,-3.768 c -2.904,0 -4.944,-2.16 -4.944,-5.472 v -2.784 c 0,-3.312 2.04,-5.472 4.944,-5.472 2.904,0 4.944,2.16 4.944,5.472 v 2.784 c 0,3.312 -2.04,5.472 -4.944,5.472 z m 11.496,-13.776 c 0.816,0 1.176,-0.432 1.176,-1.08 v -0.312 c 0,-0.648 -0.36,-1.08 -1.176,-1.08 -0.816,0 -1.176,0.432 -1.176,1.08 v 0.312 c 0,0.648 0.36,1.08 1.176,1.08 z m -0.96,15.288 h 1.92 v -12.384 h -1.92 z m 9.72,0.288 c 2.832,0 4.584,-1.464 4.584,-3.864 0,-1.872 -1.056,-3.072 -3.792,-3.48 l -0.96,-0.144 c -1.536,-0.24 -2.376,-0.72 -2.376,-1.92 0,-1.176 0.84,-1.92 2.424,-1.92 1.584,0 2.64,0.744 3.192,1.512 l 1.272,-1.152 c -1.008,-1.248 -2.328,-1.992 -4.32,-1.992 -2.52,0 -4.416,1.2 -4.416,3.648 0,2.304 1.704,3.24 3.984,3.576 l 0.984,0.144 c 1.632,0.24 2.16,0.984 2.16,1.944 0,1.272 -0.96,2.016 -2.592,2.016 -1.56,0 -2.712,-0.696 -3.672,-1.896 l -1.368,1.104 c 1.104,1.464 2.616,2.424 4.896,2.424 z m 7.976,-0.288 h 1.92 v -4.416 l 1.848,-1.896 4.104,6.312 h 2.328 l -5.04,-7.488 4.584,-4.896 h -2.328 l -3.504,3.768 -1.896,2.112 h -0.096 V 173.74 h -1.92 z m 13.616,-15.288 c 0.816,0 1.176,-0.432 1.176,-1.08 v -0.312 c 0,-0.648 -0.36,-1.08 -1.176,-1.08 -0.816,0 -1.176,0.432 -1.176,1.08 v 0.312 c 0,0.648 0.36,1.08 1.176,1.08 z m -0.96,15.288 h 1.92 v -12.384 h -1.92 z m 11.136,0 v -1.68 h -2.52 v -9.024 h 2.712 v -1.68 H 946.5 v -3.432 h -1.728 v 2.304 c 0,0.84 -0.264,1.128 -1.08,1.128 h -1.152 v 1.68 h 2.04 v 8.664 c 0,1.2 0.72,2.04 2.04,2.04 z m 19.366,0 v -1.776 h -8.208 v -5.808 h 7.728 v -1.776 h -7.728 v -5.616 h 8.208 v -1.776 H 958.162 V 191.5 Z m 2.04,0 h 2.136 l 3.48,-4.848 h 0.072 l 3.216,4.848 h 2.256 l -4.464,-6.384 4.368,-6 h -2.136 l -3.264,4.608 h -0.072 l -3.144,-4.608 h -2.256 l 4.392,6.144 z m 13.7,4.8 h 1.924 v -6.816 h 0.09 c 0.75,1.536 1.92,2.304 3.63,2.304 3.09,0 5.04,-2.52 5.04,-6.48 0,-3.96 -1.95,-6.48 -5.04,-6.48 -1.71,0 -2.98,0.744 -3.63,2.304 h -0.09 v -2.016 h -1.924 z m 5.114,-6.24 c -1.75,0 -3.19,-0.912 -3.19,-2.52 v -4.608 c 0,-1.368 1.44,-2.376 3.19,-2.376 2.16,0 3.5,1.488 3.5,3.696 v 2.112 c 0,2.208 -1.34,3.696 -3.5,3.696 z m 13.46,1.728 c 2.33,0 4.11,-1.152 4.9,-2.832 l -1.37,-0.984 c -0.65,1.368 -1.85,2.136 -3.41,2.136 -2.3,0 -3.67,-1.608 -3.67,-3.744 v -0.576 h 8.91 v -0.912 c 0,-3.504 -2.04,-6.048 -5.36,-6.048 -3.36,0 -5.56,2.544 -5.56,6.48 0,3.936 2.2,6.48 5.56,6.48 z m 0,-11.352 c 1.97,0 3.29,1.464 3.29,3.648 v 0.264 h -6.84 v -0.168 c 0,-2.16 1.47,-3.744 3.55,-3.744 z m 10.44,11.064 v -8.4 c 0,-1.176 1.25,-2.064 3.31,-2.064 h 1.13 v -1.92 h -0.74 c -2.02,0 -3.15,1.104 -3.58,2.28 h -0.12 v -2.28 h -1.92 V 191.5 Z m 7.85,-15.288 c 0.82,0 1.18,-0.432 1.18,-1.08 v -0.312 c 0,-0.648 -0.36,-1.08 -1.18,-1.08 -0.81,0 -1.17,0.432 -1.17,1.08 v 0.312 c 0,0.648 0.36,1.08 1.17,1.08 z m -0.96,15.288 h 1.92 v -12.384 h -1.92 z m 7.92,0 v -8.592 c 0,-1.584 1.44,-2.352 2.95,-2.352 1.83,0 2.67,1.128 2.67,3.336 v 7.608 h 1.92 v -8.592 c 0,-1.584 1.39,-2.352 2.9,-2.352 1.87,0 2.71,1.152 2.71,3.336 v 7.608 h 1.92 v -7.944 c 0,-3 -1.51,-4.728 -4.03,-4.728 -2.11,0 -3.31,1.176 -3.77,2.52 h -0.04 c -0.68,-1.776 -2.16,-2.52 -3.8,-2.52 -1.92,0 -2.78,1.032 -3.33,2.304 h -0.1 v -2.016 h -1.92 V 191.5 Z m 23.69,0.288 c 2.33,0 4.11,-1.152 4.9,-2.832 l -1.37,-0.984 c -0.65,1.368 -1.85,2.136 -3.41,2.136 -2.3,0 -3.67,-1.608 -3.67,-3.744 v -0.576 h 8.9 v -0.912 c 0,-3.504 -2.04,-6.048 -5.35,-6.048 -3.36,0 -5.57,2.544 -5.57,6.48 0,3.936 2.21,6.48 5.57,6.48 z m 0,-11.352 c 1.97,0 3.29,1.464 3.29,3.648 v 0.264 h -6.84 v -0.168 c 0,-2.16 1.46,-3.744 3.55,-3.744 z m 10.44,11.064 v -8.592 c 0,-1.584 1.49,-2.352 3.02,-2.352 1.85,0 2.81,1.128 2.81,3.336 v 7.608 h 1.92 v -7.944 c 0,-3 -1.61,-4.728 -4.15,-4.728 -1.85,0 -2.91,0.912 -3.51,2.304 h -0.09 v -2.016 h -1.92 V 191.5 Z m 16.85,0 v -1.68 h -2.52 v -9.024 h 2.72 v -1.68 h -2.72 v -3.432 h -1.72 v 2.304 c 0,0.84 -0.27,1.128 -1.08,1.128 h -1.16 v 1.68 h 2.04 v 8.664 c 0,1.2 0.72,2.04 2.04,2.04 z m 7,0.288 c 2.83,0 4.59,-1.464 4.59,-3.864 0,-1.872 -1.06,-3.072 -3.8,-3.48 l -0.96,-0.144 c -1.53,-0.24 -2.37,-0.72 -2.37,-1.92 0,-1.176 0.84,-1.92 2.42,-1.92 1.59,0 2.64,0.744 3.19,1.512 l 1.28,-1.152 c -1.01,-1.248 -2.33,-1.992 -4.32,-1.992 -2.52,0 -4.42,1.2 -4.42,3.648 0,2.304 1.7,3.24 3.98,3.576 l 0.99,0.144 c 1.63,0.24 2.16,0.984 2.16,1.944 0,1.272 -0.96,2.016 -2.59,2.016 -1.56,0 -2.72,-0.696 -3.68,-1.896 l -1.36,1.104 c 1.1,1.464 2.61,2.424 4.89,2.424 z"
     fill="#121619"
     id="path109" />
  <defs
     id="defs136">
    <radialGradient
       id="paint0_radial_105_730"
       cx="0"
       cy="0"
       r="1"
       gradientUnits="userSpaceOnUse"
       gradientTransform="matrix(23.196607,5.0370706,-3.2859198,15.132246,987.46,51.070399)">
      <stop
         offset="0.16"
         stop-color="#010101"
         stop-opacity="0"
         id="stop111" />
      <stop
         offset="1"
         stop-color="#010101"
         id="stop113" />
    </radialGradient>
    <radialGradient
       id="paint1_radial_105_730"
       cx="0"
       cy="0"
       r="1"
       gradientUnits="userSpaceOnUse"
       gradientTransform="matrix(12.7639,0,0,7.75736,978.891,66.507599)">
      <stop
         stop-color="#010101"
         stop-opacity="0"
         id="stop116" />
      <stop
         offset="1"
         stop-color="#010101"
         id="stop118" />
    </radialGradient>
    <radialGradient
       id="paint2_radial_105_730"
       cx="0"
       cy="0"
       r="1"
       gradientUnits="userSpaceOnUse"
       gradientTransform="matrix(21.9705,0,0,16.6909,979.014,36.270399)">
      <stop
         offset="0.2"
         stop-color="#010101"
         stop-opacity="0"
         id="stop121" />
      <stop
         offset="1"
         stop-color="#010101"
         id="stop123" />
    </radialGradient>
    <radialGradient
       id="paint3_radial_105_730"
       cx="0"
       cy="0"
       r="1"
       gradientUnits="userSpaceOnUse"
       gradientTransform="matrix(6.0517707,13.366533,-19.036562,8.6189074,965.418,25.289199)">
      <stop
         offset="0.36"
         stop-color="#010101"
         stop-opacity="0"
         id="stop126" />
      <stop
         offset="1"
         stop-color="#010101"
         id="stop128" />
    </radialGradient>
    <radialGradient
       id="paint4_radial_105_730"
       cx="0"
       cy="0"
       r="1"
       gradientUnits="userSpaceOnUse"
       gradientTransform="matrix(389.6,0,0,386.746,814.01,-409.95)">
      <stop
         stop-color="#010101"
         stop-opacity="0"
         id="stop131" />
      <stop
         offset="0.37"
         stop-color="#010101"
         id="stop133" />
    </radialGradient>
  </defs>
</svg>
